<?xml version="1.0" encoding="UTF-8"?>
<!-- Generator: visioncortex VTracer -->
<svg id="svg" version="1.1" xmlns="http://www.w3.org/2000/svg" style="display: block;" viewBox="0 0 1598 1600"><path d="M0 0 C527.34 0 1054.68 0 1598 0 C1598 528 1598 1056 1598 1600 C1070.66 1600 543.32 1600 0 1600 C0 1072 0 544 0 0 Z " transform="translate(0,0)" style="fill: #502988;"/><path d="M0 0 C1.17304688 0.23025879 2.34609375 0.46051758 3.5546875 0.69775391 C21.63560208 4.32122751 38.88728919 9.08951678 56 16 C56.96035156 16.37769531 57.92070313 16.75539063 58.91015625 17.14453125 C70.78799801 21.92444335 82.0822147 27.9294604 93.34375 33.99267578 C99.18744018 37.12827691 105.10954826 40.09736798 111.05078125 43.04296875 C111.92548789 43.49795101 111.92548789 43.49795101 112.81786537 43.96212482 C115.02144012 45.06187863 115.02144012 45.06187863 117.53325462 45.86150646 C120.42106047 46.96321465 122.60881405 48.03014217 125 50 C126.4762224 53.98855598 126.26683479 57.83026586 126.13525391 62.04223633 C126.13744431 63.87212601 126.13744431 63.87212601 126.13967896 65.73898315 C126.13391006 69.07779483 126.08385703 72.41039469 126.01393938 75.74810624 C125.95134629 79.23794557 125.94554632 82.7278714 125.9336853 86.21818542 C125.90262541 92.82389296 125.82059994 99.4279419 125.72019041 106.03291959 C125.60834359 113.55381834 125.55341688 121.07479714 125.50323606 128.59632075 C125.39875997 144.06517385 125.22291716 159.53237292 125 175 C121.99453682 173.82343765 119.28427709 172.68696331 116.6171875 170.86328125 C116.01302002 170.4544873 115.40885254 170.04569336 114.78637695 169.62451172 C114.15562256 169.19154785 113.52486816 168.75858398 112.875 168.3125 C111.53317742 167.4040236 110.19072537 166.49647627 108.84765625 165.58984375 C108.19168457 165.14624512 107.53571289 164.70264648 106.85986328 164.24560547 C104.37098563 162.57873046 101.84656338 160.97216076 99.3125 159.375 C91.86974801 154.67082738 84.52529426 149.82639073 77.375 144.6875 C72.06832595 140.93960821 66.51852285 137.62289175 60.95996094 134.26733398 C55.92703121 131.21595073 50.99849483 128.04931287 46.125 124.75 C35.56751309 117.64623262 24.89149385 111.84656437 13.1640625 106.94189453 C11.59811925 106.26032763 10.04757638 105.54300834 8.5078125 104.80419922 C1.54109478 101.47837287 -5.39506122 99.25309625 -12.875 97.375 C-14.05900391 97.07650146 -15.24300781 96.77800293 -16.46289062 96.47045898 C-43.84716128 89.75540771 -74.78295377 85.58761629 -100.578125 99.49609375 C-103.55285291 101.34330382 -105.7713886 103.29865285 -108 106 C-108.845625 106.928125 -109.69125 107.85625 -110.5625 108.8125 C-115.71884444 115.19683403 -117.71404526 121.13485285 -117.5625 129.3125 C-117.55226807 130.14483154 -117.54203613 130.97716309 -117.53149414 131.8347168 C-117.26623616 139.55725566 -115.60378951 145.82911671 -110.4609375 151.78125 C-108.73023871 153.38891333 -106.96431542 154.68916746 -105 156 C-104.30390625 156.48855469 -103.6078125 156.97710938 -102.890625 157.48046875 C-83.18270415 170.34352447 -57.07709045 174.33220955 -34.41015625 178.88671875 C-28.57522855 180.06669109 -22.82674147 181.47965429 -17.0625 182.96875 C-13.0811135 183.99413727 -9.07936248 184.92395476 -5.07519531 185.85571289 C2.6262688 187.65176837 10.23484454 189.53276461 17.76098633 191.98095703 C20.99900054 192.99968555 24.25330354 193.90530299 27.52734375 194.80078125 C34.72951509 196.85172444 41.66781187 199.36376605 48.625 202.125 C49.83486572 202.60437012 51.04473145 203.08374023 52.29125977 203.57763672 C73.46583302 212.10015373 91.50611835 222.11519817 108 238 C108.65613281 238.59296875 109.31226563 239.1859375 109.98828125 239.796875 C118.32488746 247.53937824 124.29822349 257.74672833 129 268 C129.33128906 268.60714844 129.66257812 269.21429687 130.00390625 269.83984375 C136.18181454 283.23742525 137.6572847 299.12683104 137.46655273 313.65942383 C137.43745808 316.06596706 137.44604147 318.47030627 137.45898438 320.87695312 C137.44101882 333.66168403 136.40667735 346.81439804 131.74609375 358.84765625 C130.8765113 361.24171715 130.8765113 361.24171715 130.09765625 364.7734375 C126.87561484 377.89337197 119.82438207 389.17904608 112 400 C111.59910156 400.56847656 111.19820312 401.13695312 110.78515625 401.72265625 C94.86853944 424.2146623 71.25297528 438.9349912 45.8359375 448.8671875 C44.21037346 449.51651749 42.59314949 450.19046188 41.0078125 450.93261719 C35.51538034 453.49879288 30.15821111 455.17629011 24.25 456.5 C23.34894531 456.7072168 22.44789063 456.91443359 21.51953125 457.12792969 C15.0327537 458.59667648 8.52547094 459.96449895 2 461.25 C1.18950195 461.41306641 0.37900391 461.57613281 -0.45605469 461.74414062 C-13.47550027 464.21452392 -26.59084306 464.1593991 -39.79077148 464.13037109 C-42.66460525 464.12504245 -45.53828053 464.13032864 -48.41210938 464.13671875 C-66.36607342 464.14675434 -83.7230304 463.23499232 -101.4375 460.25 C-102.2392868 460.11783081 -103.04107361 459.98566162 -103.86715698 459.8494873 C-135.89646482 454.55493859 -135.89646482 454.55493859 -143 450 C-143 449.34 -143 448.68 -143 448 C-144.8253125 447.90138672 -144.8253125 447.90138672 -146.6875 447.80078125 C-153.18681728 447.07482073 -158.96855582 444.60491943 -165 442.1875 C-166.1240625 441.74857422 -167.248125 441.30964844 -168.40625 440.85742188 C-189.4514302 432.58440419 -213.06383041 422.31677489 -230 407 C-230 406.34 -230 405.68 -230 405 C-230.66 405 -231.32 405 -232 405 C-232 365.4 -232 325.8 -232 285 C-227.58831586 286.76467366 -224.0481157 288.81064951 -220.17578125 291.4609375 C-219.5235408 291.90174652 -218.87130035 292.34255554 -218.19929504 292.79672241 C-216.822923 293.72708249 -215.44777608 294.6592573 -214.0737915 295.59313965 C-211.41365292 297.39777791 -208.74215875 299.18515972 -206.07052612 300.97271729 C-203.43431362 302.73865336 -200.80348458 304.51251439 -198.1730957 306.28710938 C-196.84154816 307.18430359 -195.50885052 308.07979313 -194.17504883 308.97363281 C-186.98232599 313.79500347 -180.01346611 318.6891924 -173.30932617 324.18164062 C-169.42075377 327.24349571 -165.27710364 329.85132999 -161.0625 332.4375 C-159.71321411 333.26991211 -159.71321411 333.26991211 -158.33666992 334.11914062 C-150.13956627 339.08316944 -141.65923814 343.19697306 -132.92529297 347.11572266 C-130.52608408 348.21766719 -128.20294978 349.44304793 -125.875 350.6875 C-115.61435927 355.88071396 -104.12895851 359.25982447 -93 362 C-93 362.66 -93 363.32 -93 364 C-92.39414062 364.05478516 -91.78828125 364.10957031 -91.1640625 364.16601562 C-84.22805563 364.82226858 -77.37964887 365.80883666 -70.5 366.89453125 C-49.82171876 370.09320288 -29.26702155 370.50804277 -8.86865234 365.45751953 C-6.59226319 364.90017001 -4.3023506 364.43657347 -2 364 C-2 363.34 -2 362.68 -2 362 C-0.0133018 360.89461904 2.01671092 359.86675795 4.0625 358.875 C14.02987571 353.74633949 18.52230199 347.52658053 22 337 C22.33 336.01 22.66 335.02 23 334 C23.81531832 324.57680176 22.83718443 315.97922564 16.625 308.5625 C13.96727257 305.78801048 11.45844551 303.72922275 8 302 C6.95457031 301.37222656 5.90914062 300.74445313 4.83203125 300.09765625 C1.11045303 297.96897143 -2.73960579 296.49968964 -6.8125 295.1875 C-7.96758057 294.81129517 -7.96758057 294.81129517 -9.14599609 294.42749023 C-27.41553652 288.59850042 -46.01844045 284.18501555 -64.76611328 280.22094727 C-65.43349518 280.07922592 -66.10087708 279.93750458 -66.78848267 279.79148865 C-68.60770296 279.40632338 -70.42784706 279.02552893 -72.24804688 278.64501953 C-75 278 -75 278 -77 277 C-77 276.34 -77 275.68 -77 275 C-78.29421875 274.87625 -79.5884375 274.7525 -80.921875 274.625 C-119.18123803 270.33088599 -164.57372742 254.29842045 -194 229 C-194.94875 228.21238281 -195.8975 227.42476562 -196.875 226.61328125 C-217.96663034 208.42175008 -228.74264602 183.29677662 -232 156 C-232.28130969 151.49542161 -232.3344194 147.012538 -232.3125 142.5 C-232.30758545 141.28530029 -232.3026709 140.07060059 -232.29760742 138.8190918 C-231.94100345 111.00215295 -225.11119548 84.94206638 -209 62 C-208.34644531 61.04996094 -207.69289063 60.09992188 -207.01953125 59.12109375 C-180.94222008 22.68885756 -138.84166159 5.33907462 -96.13720703 -2.52734375 C-65.30099887 -7.17317247 -30.50101436 -6.08658635 0 0 Z " transform="translate(501,457)" style="fill: #FEFDFE;"/><path d="M0 0 C37.29 0 74.58 0 113 0 C113.04898438 9.2709375 113.09796875 18.541875 113.1484375 28.09375 C113.1838512 33.99089439 113.2197489 39.88802936 113.2578125 45.78515625 C113.31804925 55.13132516 113.37639236 64.47747655 113.421875 73.82373047 C113.45502061 80.63296422 113.49497257 87.44211988 113.54279006 94.25126696 C113.56783316 97.85005825 113.58967714 101.44879924 113.60334396 105.0476532 C113.32335979 136.78763722 113.32335979 136.78763722 122 167 C122.56259867 168.54163066 123.12508825 170.08330114 123.6875 171.625 C127.51404 181.24266375 133.57675473 189.93359897 140 198 C140.721875 198.969375 141.44375 199.93875 142.1875 200.9375 C156.15541796 217.24813837 178.88038877 227.34460426 200 229 C226.88164061 230.23451536 251.96253172 224.50670437 273 207 C273.71671875 206.26265625 274.4334375 205.5253125 275.171875 204.765625 C277 203 277 203 279 203 C279.268125 202.46375 279.53625 201.9275 279.8125 201.375 C281.07053684 198.85892632 282.69871038 197.00967138 284.515625 194.8828125 C287.70740505 190.83429149 290.33113512 186.4027394 293 182 C293.52980469 181.1440625 294.05960938 180.288125 294.60546875 179.40625 C305.78252203 160.32768091 308.09721276 137.55953748 308.20532227 115.88769531 C308.21522186 114.63748596 308.22512146 113.38727661 308.23532104 112.09918213 C308.2612681 108.71157641 308.28322708 105.32399122 308.30332303 101.93634892 C308.32538718 98.38094272 308.35267464 94.82557646 308.37937927 91.27020264 C308.42903295 84.55575686 308.47407159 77.84128859 308.51740164 71.12679935 C308.5763077 62.04067256 308.64244542 52.9545985 308.70815182 43.86851883 C308.81129833 29.57904823 308.90487139 15.28953144 309 1 C345.96 1 382.92 1 421 1 C421.1209091 36.76670381 421.1209091 36.76670381 421.14648438 51.87304688 C421.1642143 62.26135758 421.18493943 72.64959475 421.22631836 83.0378418 C421.25645352 90.60700522 421.27562948 98.17610839 421.28226548 105.74533015 C421.28613744 109.74398414 421.29507472 113.74246593 421.31719017 117.74106407 C421.40730212 134.70499845 421.20615987 151.27113276 418 168 C417.84569204 168.83865286 417.69138409 169.67730572 417.53240013 170.5413723 C409.97548502 211.54970983 389.58085284 251.26770987 358 279 C357.34 279 356.68 279 356 279 C356 279.99 356 280.98 356 282 C352.00153635 285.7272635 347.45382941 288.83783604 343 292 C342.36852051 292.44972168 341.73704102 292.89944336 341.08642578 293.36279297 C323.72144677 305.55129154 304.22945042 314.17082665 284.25 321.125 C283.53457031 321.37636719 282.81914063 321.62773438 282.08203125 321.88671875 C280.05652884 322.59657372 278.02841337 323.29851789 276 324 C274.97648437 324.3609375 273.95296875 324.721875 272.8984375 325.09375 C268.39633978 326.50141398 263.81651947 327.30519473 259.17510986 328.09918213 C256.59582828 328.54045144 254.02346562 328.9953865 251.45580292 329.50020599 C226.95106085 334.28443673 202.22216335 333.52360407 177.36825562 333.40512085 C171.72905642 333.3820299 166.08993072 333.38125174 160.45068359 333.37841797 C144.0504131 333.35758043 127.65020213 333.30173565 111.25 333.25 C56.18125 333.12625 56.18125 333.12625 0 333 C0 223.11 0 113.22 0 0 Z " transform="translate(668,453)" style="fill: #FEFDFE;"/><path d="M0 0 C10.89 -0.061875 21.78 -0.12375 33 -0.1875 C36.38378906 -0.21481201 39.76757812 -0.24212402 43.25390625 -0.27026367 C60.06210764 -0.34851437 76.36890712 0.24444706 93 3 C93.77902679 3.12494339 94.55805359 3.24988678 95.36068726 3.37861633 C122.27719497 7.71976902 150.64915954 17.05287739 173 33 C173.61472168 33.43715332 174.22944336 33.87430664 174.86279297 34.32470703 C199.50283811 51.96856028 218.29658691 75.77952144 223.40625 106.4375 C223.72785655 109.29622489 223.8847252 112.12491097 224 115 C224.03254883 115.69738281 224.06509766 116.39476562 224.09863281 117.11328125 C224.87649861 135.81348937 221.94643752 153.00171502 214 170 C213.62230469 170.81339844 213.24460937 171.62679687 212.85546875 172.46484375 C209.20449857 179.59907169 204.0157716 185.79238171 199 192 C198.3503125 192.81855469 197.700625 193.63710938 197.03125 194.48046875 C189.0292223 204.05916716 178.61026584 210.89023395 167.97265625 217.2109375 C165.90433026 218.45573816 163.87977048 219.77500156 161.89453125 221.1484375 C159.33020834 222.78877361 157.55883031 223.64300063 154.625 224.25 C153.42875 224.4975 152.2325 224.745 151 225 C151 225.66 151 226.32 151 227 C152.8871875 227.556875 152.8871875 227.556875 154.8125 228.125 C178.21680233 235.99934471 206.88823795 257.22212016 219 279 C219.4846875 279.83660156 219.969375 280.67320312 220.46875 281.53515625 C222.0435936 284.32728968 223.53461866 287.14896015 225 290 C225.51820313 290.99902344 226.03640625 291.99804688 226.5703125 293.02734375 C236.51958714 313.25086933 238.38793397 336.03255844 234 358 C233.81695313 359.09183594 233.63390625 360.18367188 233.4453125 361.30859375 C228.2685162 389.46141809 210.04751902 414.2525552 186.95458984 430.66601562 C176.74588392 437.63333628 165.89428642 443.28734774 154.5625 448.1875 C153.66853516 448.57429932 152.77457031 448.96109863 151.85351562 449.35961914 C147.8704109 451.02116254 145.39981799 452 141 452 C141 452.66 141 453.32 141 454 C127.24915089 458.48681349 113.75514857 462.34427276 99.4375 464.5625 C98.70152588 464.67746826 97.96555176 464.79243652 97.20727539 464.91088867 C94.47561957 465.31197305 91.73963211 465.65738815 89 466 C87.72302246 466.17499023 86.44604492 466.34998047 85.13037109 466.53027344 C68.07017643 468.67397705 50.90892935 468.21776428 33.75 468.125 C22.9425 468.08375 12.135 468.0425 1 468 C1 434.01 1 400.02 1 365 C2.32 365.33 3.64 365.66 5 366 C5 366.66 5 367.32 5 368 C10.75836632 369.75139252 16.5298783 371.4554127 22.3125 373.125 C24.03919922 373.62386719 24.03919922 373.62386719 25.80078125 374.1328125 C33.01787771 376.08909506 39.73397744 376.18349918 47.1875 376.1875 C48.36892578 376.19974609 49.55035156 376.21199219 50.76757812 376.22460938 C60.91590163 376.24147639 69.77801738 374.58972529 79.375 371.4375 C87.65411954 368.76354708 87.65411954 368.76354708 91 368 C91 367.34 91 366.68 91 366 C92.77522469 364.91564109 94.59803459 363.90890308 96.4375 362.9375 C107.99306656 356.36935957 116.27583273 346.82910439 120 334 C121.83662315 323.02288829 120.70274144 313.22630361 114.34375 304.0234375 C106.48546706 293.8862525 97.47030475 287.37456838 85.87109375 282.078125 C84.94490234 281.54445313 84.94490234 281.54445313 84 281 C84 280.34 84 279.68 84 279 C82.80375 278.896875 81.6075 278.79375 80.375 278.6875 C77.5802019 278.39646436 74.9859436 277.99621945 72.26953125 277.265625 C63.77965356 274.98444113 55.63935041 274.67144504 46.875 274.625 C45.69574951 274.61138428 44.51649902 274.59776855 43.30151367 274.58374023 C36.37149391 274.61906045 30.21365656 275.39820303 23.54614258 277.30810547 C21.26710217 277.92741705 19.15623457 278.27317743 16.8125 278.5 C15.884375 278.665 14.95625 278.83 14 279 C13.67 279.99 13.34 280.98 13 282 C11.328125 282.87890625 11.328125 282.87890625 9.25 283.5625 C6.10545572 284.62468385 3.09791387 285.76083445 0 287 C0 250.04 0 213.08 0 175 C5 177 5 177 7.2265625 178.1484375 C27.97892016 188.76120673 52.12394167 188.59516566 74.125 182.75 C89.80898991 177.65402348 103.4616858 168.81976606 111.09375 153.85546875 C114.35589113 145.71521842 114.39306079 135.82048724 111.375 127.625 C109.17560782 122.91860834 106.39976289 118.91368054 103 115 C102.42507813 114.33097656 101.85015625 113.66195312 101.2578125 112.97265625 C93.87710463 104.99475417 84.46475255 99.75479413 74 97 C72.67742187 96.58427734 72.67742187 96.58427734 71.328125 96.16015625 C60.67120415 93.1646228 49.97117827 93.67637274 39 94 C37.75347656 94.01933594 36.50695313 94.03867187 35.22265625 94.05859375 C23.98966434 94.51679985 13.17844051 98.17525111 3.63671875 104.08203125 C2 105 2 105 0 105 C0 70.35 0 35.7 0 0 Z " transform="translate(1131,453)" style="fill: #FDFDFE;"/><path d="M0 0 C34.68416972 -0.08844878 69.36822854 -0.16220181 104.05247737 -0.20426132 C108.16226376 -0.20926318 112.27204991 -0.21444056 116.38183594 -0.21972656 C117.60893341 -0.22130043 117.60893341 -0.22130043 118.86082074 -0.22290608 C132.04658952 -0.240235 145.23228738 -0.27173045 158.41801432 -0.30861118 C171.98281395 -0.3462312 185.54757687 -0.36827994 199.11242652 -0.37635398 C207.45926534 -0.3817985 215.80590363 -0.39889018 224.15268061 -0.43166587 C229.90341647 -0.45307498 235.65405114 -0.45914162 241.40482381 -0.45400551 C244.70563998 -0.45148384 248.00583532 -0.45719622 251.306633 -0.4768219 C279.23814089 -0.63452959 319.21665409 0.29955574 344 16 C344 16.66 344 17.32 344 18 C344.68964844 18.103125 345.37929688 18.20625 346.08984375 18.3125 C349.52055671 19.12297716 352.38854143 20.47002693 355.5625 22 C360.62054858 24.46134546 360.62054858 24.46134546 366 26 C366 26.66 366 27.32 366 28 C367.175625 28.3403125 367.175625 28.3403125 368.375 28.6875 C373.08420986 30.39255874 377.72810261 32.36594469 382 35 C382 35.66 382 36.32 382 37 C382.81726562 37.20238281 383.63453125 37.40476562 384.4765625 37.61328125 C389.0863557 39.42755684 392.50824667 42.13606744 396.375 45.1875 C397.09171875 45.73986328 397.8084375 46.29222656 398.546875 46.86132812 C409.38111916 55.28035721 409.38111916 55.28035721 413 59 C413 59.66 413 60.32 413 61 C414.32909208 61.67508255 415.66341952 62.33986756 417 63 C420.18022898 65.74860181 423.10052149 68.76902523 426.0625 71.75 C426.91287842 72.60311768 427.76325684 73.45623535 428.6394043 74.33520508 C435.35785778 81.16498233 441.35745808 88.27105368 447 96 C451.83880982 102.49686353 456.85162884 108.70754636 462 115 C462.33 81.67 462.66 48.34 463 14 C463.66 14.33 464.32 14.66 465 15 C464.67 48.99 464.34 82.98 464 118 C310.88 118 157.76 118 0 118 C0 79.06 0 40.12 0 0 Z " transform="translate(668,803)" style="fill: #38B1E6;"/><path d="M0 0 C28.71 0 57.42 0 87 0 C87 11.88 87 23.76 87 36 C103.5 36 120 36 137 36 C137 77.91 137 119.82 137 163 C117.53 163 98.06 163 78 163 C78 151.12 78 139.24 78 127 C52.26 127 26.52 127 0 127 C0 85.09 0 43.18 0 0 Z " transform="translate(679,984)" style="fill: #38B1E6;"/><path d="M0 0 C19.14 0 38.28 0 58 0 C58.03867187 10.26351562 58.03867187 10.26351562 58.078125 20.734375 C58.10333738 25.1094107 58.1297041 29.48438025 58.16015625 33.859375 C58.20821924 40.77994905 58.2523648 47.70036969 58.27099609 54.62109375 C58.28631346 60.21046468 58.32102035 65.79942992 58.36830902 71.38861847 C58.38296914 73.50444226 58.39103201 75.62032402 58.39188385 77.73619843 C58.4051242 94.15689534 58.55963644 112.77701505 67.375 127.25 C67.96752563 128.28906494 67.96752563 128.28906494 68.57202148 129.34912109 C77.10779053 144.06788452 89.68632526 155.80132208 106.34375 160.6875 C108.21990665 161.16314535 110.10897539 161.58741281 112 162 C112 162.33 112 162.66 112 163 C74.38 163 36.76 163 -2 163 C2 160 2 160 5.26171875 159.0703125 C9.5226224 157.85036725 12.9875181 156.06838516 16.8125 153.875 C17.50956055 153.47829102 18.20662109 153.08158203 18.92480469 152.67285156 C26.70608329 148.14667516 33.49564979 143.19036739 39 136 C38.45859375 135.7628125 37.9171875 135.525625 37.359375 135.28125 C34.36749863 133.65652243 31.88840601 131.6498123 29.25 129.5 C28.26515625 128.7059375 27.2803125 127.911875 26.265625 127.09375 C25.14414062 126.05734375 25.14414062 126.05734375 24 125 C24 124.34 24 123.68 24 123 C23.4328125 122.71640625 22.865625 122.4328125 22.28125 122.140625 C18.64639634 120.32319817 16.08224349 117.32825552 13.21875 114.484375 C12.4865625 113.99453125 11.754375 113.5046875 11 113 C7.99767851 113.84897106 6.10161209 115.69218346 3.875 117.8125 C-5.07295993 125.61816718 -17.2796907 129.74845075 -29.1171875 129.34375 C-41.59662297 127.85568723 -52.58165459 122.51308887 -60.625 112.8125 C-62.86959775 109.90368455 -64.37995633 107.64485129 -65 104 C-65.66 104 -66.32 104 -67 104 C-67.65161012 102.12699975 -68.29602195 100.2514945 -68.9375 98.375 C-69.29714844 97.33085938 -69.65679687 96.28671875 -70.02734375 95.2109375 C-73.65198383 83.24525819 -72.96781278 71.41229143 -67.125 60.37109375 C-61.12941745 49.48041895 -61.12941745 49.48041895 -58 47 C-57.34 47 -56.68 47 -56 47 C-56 46.34 -56 45.68 -56 45 C-45.63023637 35.86740991 -34.41714651 32.86497061 -20.88671875 33.4140625 C-10.95846193 34.26814842 -1.71769729 38.66941799 5 46 C6.91738855 47.96287824 6.91738855 47.96287824 9 49 C19.51738849 44.98797896 28.88326024 33.62638028 37 26 C31.47240207 13.47440862 14.61958509 6.9371731 2.60546875 2.12890625 C1.74566406 1.75636719 0.88585937 1.38382813 0 1 C0 0.67 0 0.34 0 0 Z " transform="translate(400,984)" style="fill: #39B1E6;"/><path d="M0 0 C0.65421936 -0.00014603 1.30843872 -0.00029205 1.98248291 -0.0004425 C4.13052768 0.00025045 6.27848418 0.00801375 8.42651367 0.01586914 C9.92152357 0.01773552 11.41653407 0.01915838 12.9115448 0.02015686 C16.83570053 0.02396475 20.75981892 0.03378021 24.68395996 0.04486084 C28.69254044 0.05511219 32.70112698 0.05966245 36.7097168 0.06469727 C44.56715576 0.07540409 52.42456444 0.09245967 60.28198242 0.11352539 C57.5322631 1.9466716 54.75379748 3.38747283 51.78637695 4.828125 C29.35331533 15.73601474 10.97681283 32.17728964 2.59130859 56.21557617 C-4.15799539 77.25548789 -1.29500808 98.18085093 7.90698242 117.98852539 C17.49407288 136.63009017 33.75790597 151.38251525 53.28198242 159.11352539 C55.70634341 159.74532856 58.09382325 160.26093754 60.56713867 160.65649414 C61.13303711 160.80731445 61.69893555 160.95813477 62.28198242 161.11352539 C62.61198242 161.77352539 62.94198242 162.43352539 63.28198242 163.11352539 C54.67499972 163.20691784 46.06823482 163.27763648 37.46086788 163.32077408 C33.46249714 163.34149606 29.46447741 163.36952507 25.46630859 163.4152832 C21.59534405 163.4592995 17.72471336 163.48277759 13.85351753 163.49303436 C12.38937702 163.50032723 10.92525116 163.51456248 9.46125603 163.53644562 C-4.14744437 163.73144989 -16.52783536 161.38464801 -28.71801758 155.11352539 C-29.5765332 154.69458008 -30.43504883 154.27563477 -31.31958008 153.84399414 C-44.42076855 147.14578088 -53.23149652 137.83974514 -61.71801758 126.11352539 C-62.24266602 125.41614258 -62.76731445 124.71875977 -63.30786133 124.00024414 C-73.88262619 108.76312289 -77.10075819 87.46803917 -74.29907227 69.41381836 C-72.43193169 59.57755551 -70.22732755 49.60379345 -64.71801758 41.11352539 C-63.89624023 39.84508789 -63.89624023 39.84508789 -63.05786133 38.55102539 C-50.01372837 19.28584441 -32.12524614 6.05226476 -9.40791321 0.55445862 C-6.23209498 0.03387196 -3.21897917 -0.00606211 0 0 Z " transform="translate(288.718017578125,983.886474609375)" style="fill: #39B1E6;"/><path d="M0 0 C6.6 0 13.2 0 20 0 C20.0093457 2.90474121 20.01869141 5.80948242 20.02832031 8.80224609 C20.06228723 18.46541393 20.11794392 28.12837262 20.18390274 37.7913723 C20.22319082 43.64250078 20.2554701 49.49348295 20.27099609 55.34472656 C20.28628659 61.00540919 20.3209482 66.66568908 20.36830902 72.32619095 C20.38299619 74.47157896 20.39103362 76.6170245 20.39188385 78.76246262 C20.40893978 100.24651331 23.48515015 117.62657839 35 136 C35.61875 137.051875 36.2375 138.10375 36.875 139.1875 C39.80586362 143.0665842 43.2082614 145.97979777 47 149 C47.73089844 149.59039063 48.46179688 150.18078125 49.21484375 150.7890625 C55.40184824 155.46277305 61.8623016 158.17156267 69.0703125 160.8359375 C70.03710938 161.22007812 71.00390625 161.60421875 72 162 C72 162.33 72 162.66 72 163 C31.74 163 -8.52 163 -50 163 C-50 121.09 -50 79.18 -50 36 C-33.5 36 -17 36 0 36 C0 24.12 0 12.24 0 0 Z " transform="translate(906,984)" style="fill: #38B1E6;"/><path d="M0 0 C41.91 0 83.82 0 127 0 C124.99995058 6.66683139 122.939052 12.97680521 120.3125 19.375 C119.60413961 21.12498905 118.8958071 22.87498938 118.1875 24.625 C117.45833333 26.41666667 116.72916667 28.20833333 116 30 C114.59907525 33.45629609 113.20329005 36.91461349 111.8125 40.375 C111.47734375 41.2088623 111.1421875 42.04272461 110.796875 42.90185547 C108.42759251 48.83563885 106.25388724 54.81390839 104.140625 60.84375 C101.87832411 67.10381547 99.22202423 73.197314 96.5625 79.296875 C91.9196118 89.98519053 87.83232861 100.83189887 83.9375 111.8125 C82.67853687 115.29920655 81.27188135 118.64960684 79.6953125 122.00390625 C76.82113671 128.27277786 74.36718839 134.67336994 71.9375 141.125 C70.31415847 145.42573638 68.67233948 149.71807201 67 154 C66.6508252 154.91563721 66.30165039 155.83127441 65.94189453 156.7746582 C65.6117334 157.59023193 65.28157227 158.40580566 64.94140625 159.24609375 C64.66111572 159.95435303 64.3808252 160.6626123 64.09204102 161.39233398 C63 163 63 163 61.00952148 163.71777344 C58.68875374 163.97153252 57.19070338 163.81253547 55 163 C51 158.4 51 158.4 51 155 C50.34 155 49.68 155 49 155 C47.51118153 153.09273561 46.15294035 151.1957774 44.8125 149.1875 C44.41248779 148.5994458 44.01247559 148.0113916 43.6003418 147.40551758 C40.50176237 142.8240157 37.54940482 138.15465983 34.60546875 133.47265625 C32.75498309 130.62263819 30.74799153 127.93877213 28.68359375 125.2421875 C26.46225523 122.28383875 24.31539091 119.27579193 22.1875 116.25 C21.78998535 115.6945752 21.3924707 115.13915039 20.98291016 114.56689453 C19.03321795 111.77619175 17.50379006 109.40264764 17 106 C17.68964844 105.6596875 18.37929687 105.319375 19.08984375 104.96875 C34.1173085 97.21795886 42.45700904 86.71383802 48.0859375 70.9609375 C49.50950386 65.80878599 49.36839778 60.55818715 49.375 55.25 C49.41173828 53.71859375 49.41173828 53.71859375 49.44921875 52.15625 C49.49746934 39.4824287 44.61667315 27.87431352 35.79296875 18.70703125 C33.59176322 16.70832163 31.33548307 14.83892991 29 13 C28.45988281 12.52949219 27.91976563 12.05898438 27.36328125 11.57421875 C19.86046838 5.46991508 9.29377311 3.04463008 0 1 C0 0.67 0 0.34 0 0 Z " transform="translate(1194,984)" style="fill: #39B1E6;"/><path d="M0 0 C23.1 0 46.2 0 70 0 C70.12032643 24.59561319 70.12032643 24.59561319 70.14648438 35.10742188 C70.16439389 42.27049454 70.18554515 49.43345178 70.22631836 56.59643555 C70.25899615 62.37360459 70.27687086 68.15064978 70.28463173 73.92790413 C70.29016011 76.12823497 70.30095562 78.32855931 70.31719017 80.5288372 C70.33907609 83.61889997 70.34196223 86.70845576 70.34057617 89.79858398 C70.351362 90.70130035 70.36214783 91.60401672 70.3732605 92.53408813 C70.33477759 100.50117872 68.49966769 107.44677345 63.9375 114.0625 C63.43089844 114.81660156 62.92429687 115.57070312 62.40234375 116.34765625 C61.93957031 116.89292969 61.47679687 117.43820312 61 118 C60.34 118 59.68 118 59 118 C58.773125 118.5775 58.54625 119.155 58.3125 119.75 C55.45156501 124.65445997 48.76573119 126.8343474 43.51953125 128.4609375 C34.0770544 130.48118836 25.4729511 129.19638741 17.2109375 124.37109375 C8.0943532 118.28927539 3.44426807 111.20986188 0.64498901 100.71977234 C-0.83912499 92.16060914 -0.35921588 83.36606173 -0.29296875 74.70703125 C-0.28736536 72.54799191 -0.28309878 70.38894872 -0.28010559 68.22990417 C-0.26871531 62.57955172 -0.23929872 56.92943491 -0.20599365 51.2791748 C-0.16973563 44.48252989 -0.15610391 37.68580568 -0.13863373 30.88909149 C-0.10965757 20.59256436 -0.05212956 10.29655309 0 0 Z " transform="translate(499,984)" style="fill: #3AB1E6;"/><path d="M0 0 C23.1 0 46.2 0 70 0 C70.16043524 24.51539557 70.16043524 24.51539557 70.1953125 35.00976562 C70.21917266 42.155151 70.24732173 49.30033025 70.30175781 56.44555664 C70.34539509 62.20977721 70.36917497 67.97377657 70.37950897 73.73814964 C70.38686828 75.93126085 70.40123895 78.12436071 70.42292023 80.31737709 C70.55773483 94.52578062 70.61234262 106.49846775 61.05859375 117.921875 C53.75254113 125.29724501 47.53361076 128.07051603 37.18994141 128.19140625 C26.66275836 128.17149198 19.72815845 127.53233767 11.40234375 120.4765625 C2.42168709 111.21845466 -0.32812772 100.57275983 -0.22705078 88.09570312 C-0.22748886 86.66017593 -0.22748886 86.66017593 -0.22793579 85.19564819 C-0.2265513 82.05742066 -0.21103173 78.91943565 -0.1953125 75.78125 C-0.19157924 73.59550099 -0.18873375 71.40975031 -0.18673706 69.22399902 C-0.17912528 63.48982061 -0.15949793 57.75574459 -0.1373291 52.02160645 C-0.11320714 45.13156245 -0.104078 38.2414841 -0.09242249 31.35140991 C-0.0730721 20.90086888 -0.03473226 10.45055221 0 0 Z " transform="translate(967,984)" style="fill: #38B2E6;"/><path d="M0 0 C9.57 0 19.14 0 29 0 C29 53.79 29 107.58 29 163 C1.61 163 -25.78 163 -54 163 C-51.58745676 160.58745676 -49.88685821 160.25852449 -46.625 159.3125 C-28.96193163 153.59424046 -17.04460577 142.15528462 -8.6875 125.8125 C-7.77371627 123.88340101 -6.87584129 121.94661903 -6 120 C-5.68160156 119.30261719 -5.36320312 118.60523438 -5.03515625 117.88671875 C0.31348751 105.03400763 -0.65876333 90.58625484 -0.5859375 76.953125 C-0.56720062 74.72824404 -0.54762538 72.50337 -0.5272522 70.27850342 C-0.47619115 64.4589854 -0.43642697 58.63944442 -0.39910889 52.81982422 C-0.35890504 46.86680541 -0.30788787 40.91388001 -0.2578125 34.9609375 C-0.16136178 23.30735116 -0.07786031 11.65372539 0 0 Z " transform="translate(1078,984)" style="fill: #3BB0E6;"/><path d="M0 0 C9.57 0 19.14 0 29 0 C29 53.79 29 107.58 29 163 C2.27 163 -24.46 163 -52 163 C-48.55668458 160.41751343 -46.22990086 159.17764856 -42.3125 157.6875 C-24.08240378 150.29331968 -13.3654107 136.93243945 -5.8125 119.125 C-0.73389348 105.26269548 -0.52979496 92.24468252 -0.48828125 77.63671875 C-0.47140949 75.39084406 -0.45325595 73.14497866 -0.43388367 70.89912415 C-0.3866487 65.02864489 -0.35666848 59.15820335 -0.33044434 53.28759766 C-0.30050428 47.28084874 -0.25402053 41.27422947 -0.20898438 35.26757812 C-0.12325308 23.51177215 -0.05730608 11.75597894 0 0 Z " transform="translate(610,984)" style="fill: #35B2E7;"/><path d="M0 0 C20 0 20 0 25.75 5.75 C27.09399414 7.67993164 27.09399414 7.67993164 27.97265625 9.34765625 C29.85782221 12.77055451 31.97111836 15.9655766 34.1875 19.1875 C34.83332031 20.17363281 35.47914062 21.15976563 36.14453125 22.17578125 C39.82691556 27.78075778 43.71698231 33.24028315 47.66015625 38.6640625 C48.11922363 39.29844238 48.57829102 39.93282227 49.05126953 40.58642578 C49.96346009 41.8456279 50.87970135 43.10190718 51.80029297 44.35498047 C55 48.77646155 55 48.77646155 55 51 C36.85 51 18.7 51 0 51 C0 34.17 0 17.34 0 0 Z " transform="translate(1148,1096)" style="fill: #39B0E5;"/><path d="M0 0 C6.06375 -0.0825 12.1275 -0.165 18.375 -0.25 C20.26782715 -0.28641602 22.1606543 -0.32283203 24.11083984 -0.36035156 C43.08231937 -0.57567774 43.08231937 -0.57567774 49.94482422 5.80957031 C54.45306203 10.69474199 55.36891463 14.87431522 55.2734375 21.43359375 C54.76967705 26.16174538 52.86323636 29.22638767 49.45703125 32.46875 C42.89353239 37.63544018 35.42786108 38.30764096 27.34375 38.1953125 C26.64411133 38.19329834 25.94447266 38.19128418 25.22363281 38.18920898 C22.64902035 38.17886805 20.07450248 38.15094709 17.5 38.125 C11.725 38.08375 5.95 38.0425 0 38 C0 25.46 0 12.92 0 0 Z " transform="translate(1148,1021)" style="fill: #37B1E6;"/><path d="M0 0 C2.64759827 -0.50880432 2.64759827 -0.50880432 6.05102539 -0.68969727 C7.32317398 -0.76047989 8.59532257 -0.83126251 9.90602112 -0.90419006 C15.74490815 -1.14540355 21.58502426 -1.31173244 27.42749023 -1.43481445 C30.51056505 -1.50604731 33.58170363 -1.63788245 36.65991211 -1.82446289 C57.12314089 -3.03749362 57.12314089 -3.03749362 65 0 C70.97201004 5.72662618 72.91022434 14.02177261 74 22 C74 22.66 74 23.32 74 24 C46.61 24 19.22 24 -9 24 C-7.6168488 19.15897081 -6.1798774 14.48233756 -4.5 9.75 C-4.0771875 8.54859375 -3.654375 7.3471875 -3.21875 6.109375 C-2 3 -2 3 0 0 Z " transform="translate(1312,1123)" style="fill: #36B1E6;"/><path d="M0 0 C34.68416972 -0.08844878 69.36822854 -0.16220181 104.05247737 -0.20426132 C108.16226376 -0.20926318 112.27204991 -0.21444056 116.38183594 -0.21972656 C117.60893341 -0.22130043 117.60893341 -0.22130043 118.86082074 -0.22290608 C132.04658952 -0.240235 145.23228738 -0.27173045 158.41801432 -0.30861118 C171.98281395 -0.3462312 185.54757687 -0.36827994 199.11242652 -0.37635398 C207.45926534 -0.3817985 215.80590363 -0.39889018 224.15268061 -0.43166587 C229.90341647 -0.45307498 235.65405114 -0.45914162 241.40482381 -0.45400551 C244.70563998 -0.45148384 248.00583532 -0.45719622 251.306633 -0.4768219 C272.21627029 -0.5948825 292.60684708 1.21216847 313 6 C313 6.33 313 6.66 313 7 C307.39189287 6.53491118 301.80546788 6.00078052 296.22631264 5.26129436 C280.0606229 3.14063557 264.18618544 2.5564117 247.89599609 2.56762695 C245.19267492 2.55858282 242.48938075 2.54837627 239.78607178 2.53674316 C234.02648703 2.51421772 228.26696167 2.50211797 222.50733566 2.49761391 C214.1804511 2.49108636 205.85367276 2.46803561 197.52683158 2.44127061 C184.00895099 2.39825446 170.49107493 2.3681451 156.97314453 2.34643555 C143.86114273 2.32534963 130.74917791 2.29800905 117.63720703 2.26245117 C116.82560105 2.26025235 116.01399508 2.25805352 115.17779498 2.25578807 C111.10519567 2.24471652 107.0325967 2.23352407 102.95999789 2.22227156 C69.30668783 2.12944386 35.65338835 2.06011076 2 2 C2 39.62 2 77.24 2 116 C153.14 116.33 304.28 116.66 460 117 C460 116.34 460 115.68 460 115 C459.01 114.67 458.02 114.34 457 114 C457 113.34 457 112.68 457 112 C456.01 112 455.02 112 454 112 C454 110.68 454 109.36 454 108 C458.20490286 109.65192612 458.80982935 111.01228669 462 115 C462.33 81.67 462.66 48.34 463 14 C463.66 14.33 464.32 14.66 465 15 C464.67 48.99 464.34 82.98 464 118 C310.88 118 157.76 118 0 118 C0 79.06 0 40.12 0 0 Z " transform="translate(668,803)" style="fill: #6B9FE4;"/><path d="M0 0 C0 38.94 0 77.88 0 118 C170.28 118 340.56 118 516 118 C516 118.33 516 118.66 516 119 C483.27636552 119.7056571 450.56470626 120.16293813 417.83363795 120.22992671 C412.20800199 120.24241721 406.58238106 120.26000365 400.95675659 120.27679443 C390.03486598 120.30855929 379.1129691 120.33563194 368.191061 120.36059722 C359.32078236 120.38087364 350.45050789 120.40246917 341.58023453 120.42493629 C320.41700028 120.4783741 299.25376443 120.53064501 278.09051323 120.57690716 C277.41990628 120.57837444 276.74929934 120.57984172 276.05837097 120.58135347 C272.66138294 120.58878354 269.26439489 120.59620147 265.86740683 120.60361841 C264.50454075 120.6065952 263.14167467 120.60957201 261.77880859 120.61254883 C261.10357652 120.6140223 260.42834445 120.61549578 259.7326508 120.6170139 C238.38929053 120.6636464 217.04596251 120.71824338 195.70263672 120.77856445 C171.60842672 120.84665817 147.5142148 120.90796627 123.419963 120.95981437 C110.6992065 120.98734916 97.97847523 121.01802549 85.25774765 121.05682945 C74.47046084 121.08968747 63.68318514 121.11572016 52.89586113 121.13268574 C47.39446759 121.14153985 41.89313185 121.15368931 36.39176941 121.17449379 C31.36426561 121.19342726 26.33683264 121.20321871 21.30929448 121.20551727 C19.4851226 121.20799514 17.6609517 121.21390932 15.8368033 121.22349032 C13.36988441 121.23595554 10.9032645 121.23622479 8.43632317 121.2332716 C7.71814653 121.23984412 6.99996989 121.24641665 6.26003033 121.25318834 C2.60474451 121.23468664 1.13270411 121.08846941 -2 119 C-2.3719368 116.91384792 -2.3719368 116.91384792 -2.36749268 114.28648376 C-2.37306183 113.29230942 -2.37863098 112.29813507 -2.3843689 111.27383423 C-2.37515411 110.17920868 -2.36593933 109.08458313 -2.35644531 107.95678711 C-2.35848969 106.80718002 -2.36053406 105.65757294 -2.36264038 104.47312927 C-2.36565851 100.65770779 -2.34714104 96.84271415 -2.328125 93.02734375 C-2.32506932 90.38700976 -2.32319175 87.74667416 -2.32244873 85.1063385 C-2.31875412 79.56717361 -2.30377616 74.0281325 -2.28125 68.48901367 C-2.2523617 61.37078517 -2.2420259 54.25265632 -2.2375679 47.13437557 C-2.23402007 41.68106442 -2.22360998 36.22777572 -2.21169281 30.77447701 C-2.2059755 28.14889273 -2.20122167 25.52330618 -2.19742584 22.89771843 C-2.19058907 19.23637777 -2.17696937 15.57512972 -2.16113281 11.91381836 C-2.16001495 10.81716858 -2.15889709 9.7205188 -2.15774536 8.59063721 C-2.15203522 7.59928268 -2.14632507 6.60792816 -2.14044189 5.58653259 C-2.13746723 4.71987945 -2.13449257 3.8532263 -2.13142776 2.96031094 C-1.93295565 0 -1.93295565 0 0 0 Z " transform="translate(668,803)" style="fill: #3A4092;"/><path d="M0 0 C0.66 0 1.32 0 2 0 C3.08154297 2.15209961 3.08154297 2.15209961 4.2421875 5.15234375 C4.66886719 6.23966797 5.09554688 7.32699219 5.53515625 8.44726562 C5.97730469 9.59904297 6.41945313 10.75082031 6.875 11.9375 C7.74576188 14.17641742 8.61813231 16.41470996 9.4921875 18.65234375 C9.9142749 19.73459229 10.3363623 20.81684082 10.77124023 21.93188477 C12.1540076 25.38454471 13.64885112 28.77337053 15.18261719 32.16088867 C16.13463929 34.3029384 16.95393028 36.46134912 17.6875 38.6875 C18.03361328 39.71423828 18.03361328 39.71423828 18.38671875 40.76171875 C19.12617543 43.46050014 19.53997012 46.23982072 20 49 C7.46 49 -5.08 49 -18 49 C-17.11515047 44.57575234 -15.8526759 40.6220428 -14.25 36.4375 C-13.98123047 35.72787109 -13.71246094 35.01824219 -13.43554688 34.28710938 C-11.49575265 29.20145501 -9.42961637 24.17813026 -7.29296875 19.171875 C-6.28273558 16.69359907 -5.33667139 14.2181296 -4.42578125 11.703125 C-4.15765625 10.96578125 -3.88953125 10.2284375 -3.61328125 9.46875 C-3.08605986 8.00796099 -2.56631796 6.54444734 -2.0546875 5.078125 C-1.43416072 3.36077521 -0.72520291 1.67583547 0 0 Z " transform="translate(1343,1042)" style="fill: #3EAEE5;"/><path d="M0 0 C9.57 0 19.14 0 29 0 C29 53.79 29 107.58 29 163 C2.27 163 -24.46 163 -52 163 C-48.55668458 160.41751343 -46.22990086 159.17764856 -42.3125 157.6875 C-24.08240378 150.29331968 -13.3654107 136.93243945 -5.8125 119.125 C-0.73389348 105.26269548 -0.52979496 92.24468252 -0.48828125 77.63671875 C-0.47140949 75.39084406 -0.45325595 73.14497866 -0.43388367 70.89912415 C-0.3866487 65.02864489 -0.35666848 59.15820335 -0.33044434 53.28759766 C-0.30050428 47.28084874 -0.25402053 41.27422947 -0.20898438 35.26757812 C-0.12325308 23.51177215 -0.05730608 11.75597894 0 0 Z M2 3 C1.99191315 4.30434494 1.98382629 5.60868988 1.97549438 6.95256042 C1.89804178 19.23907189 1.81030455 31.5254725 1.71247292 43.8118391 C1.6625068 50.12852465 1.6161766 56.44519344 1.578125 62.76196289 C1.54127646 68.85689617 1.49491733 74.95168942 1.44193649 81.04650307 C1.42339032 83.37290302 1.4082832 85.69933299 1.39665604 88.02577782 C1.3797977 91.28189843 1.35076298 94.5376982 1.31884766 97.79370117 C1.31668747 98.75755234 1.31452728 99.7214035 1.31230164 100.71446228 C1.25455547 105.32009005 0.98974522 108.76950945 -1 113 C-1.07646165 115.3320802 -1.09143299 117.66845878 -1 120 C-1.99 120 -2.98 120 -4 120 C-5.41729967 122.75122877 -6.13668784 125.51030127 -6.9375 128.5 C-8.28448113 132.93711431 -10.44790301 136.17185452 -13 140 C-13.66 140.309375 -14.32 140.61875 -15 140.9375 C-17.13700828 141.82161575 -17.13700828 141.82161575 -17.90234375 143.84765625 C-21.13810066 150.19250343 -27.80136988 153.74460162 -34.21484375 156.17578125 C-36.19179956 156.86311021 -36.19179956 156.86311021 -37 159 C-37.99 159.33 -38.98 159.66 -40 160 C-40 160.66 -40 161.32 -40 162 C-17.89 161.67 4.22 161.34 27 161 C27.02912749 133.92871239 27.02912749 133.92871239 27.04882812 106.85742188 C27.05476516 95.8202264 27.06175029 84.78303855 27.07543945 73.74584961 C27.08540378 65.70806122 27.09185761 57.67027901 27.09408849 49.63248461 C27.09539262 45.37619079 27.0984597 41.11991464 27.10573006 36.86362648 C27.11251783 32.85739749 27.11461133 28.85119345 27.11310768 24.84495926 C27.11338277 23.37479326 27.11537154 21.90462643 27.11920547 20.43446541 C27.12418569 18.42623117 27.12238755 16.41798354 27.12025452 14.40974426 C27.12117631 13.28607862 27.1220981 12.16241297 27.12304783 11.00469685 C27.00903691 8.22067161 26.63516089 5.70760227 26 3 C23.1253509 2.80413816 20.25061717 2.61806201 17.375 2.4375 C16.56675781 2.38142578 15.75851562 2.32535156 14.92578125 2.26757812 C14.13300781 2.21923828 13.34023438 2.17089844 12.5234375 2.12109375 C11.80075684 2.0739624 11.07807617 2.02683105 10.33349609 1.97827148 C7.48355751 2.00480889 4.80385791 2.51014556 2 3 Z " transform="translate(610,984)" style="fill: #44A9E2;"/><path d="M0 0 C28.71 0 57.42 0 87 0 C87 11.55 87 23.1 87 35 C86.67 35 86.34 35 86 35 C86 24.44 86 13.88 86 3 C58.94 3 31.88 3 4 3 C3.67 43.59 3.34 84.18 3 126 C2.01 126 1.02 126 0 126 C0 84.42 0 42.84 0 0 Z " transform="translate(679,984)" style="fill: #5EA5E4;"/><path d="M0 0 C0.90047058 -0.009104 1.80094116 -0.01820801 2.72869873 -0.02758789 C3.88929306 -0.04202942 3.88929306 -0.04202942 5.07333374 -0.0567627 C6.94500732 0.04858398 6.94500732 0.04858398 8.94500732 1.04858398 C9.15856818 4.01552748 9.23858297 6.89039844 9.23553467 9.86010742 C9.24225189 10.78546799 9.24896912 11.71082855 9.25588989 12.66423035 C9.27499348 15.74552696 9.27880195 18.8266067 9.28094482 21.90795898 C9.2873702 24.05015147 9.29409836 26.19234307 9.30111694 28.33453369 C9.31312477 32.8406375 9.31679478 37.34666451 9.31561279 41.8527832 C9.31541078 47.59906177 9.34257516 53.3448392 9.37715721 59.0909996 C9.39952567 63.52484343 9.4034471 67.95856924 9.40239334 72.39246368 C9.40473965 74.50854449 9.41350794 76.62462903 9.42905807 78.74065399 C9.50558598 90.24321063 9.35289218 100.26572093 4.94500732 111.04858398 C4.4467897 112.40339874 4.4467897 112.40339874 3.93850708 113.7855835 C1.99293285 118.99506548 0.00134132 121.63033729 -5.05499268 124.04858398 C-6.04499268 123.55358398 -6.04499268 123.55358398 -7.05499268 123.04858398 C-6.66827393 122.61288086 -6.28155518 122.17717773 -5.88311768 121.72827148 C2.4706822 112.17516371 5.23394491 104.50953856 5.26385498 91.96069336 C5.2739006 90.98416809 5.28394623 90.00764282 5.29429626 89.00152588 C5.32499746 85.79846748 5.34212702 82.59549217 5.35906982 79.39233398 C5.37779197 77.16173596 5.39736616 74.93114494 5.41775513 72.70056152 C5.4689716 66.84810525 5.50865342 60.99562605 5.54589844 55.14306641 C5.59306321 48.11109695 5.65461602 41.07924036 5.71374512 34.04736328 C5.80182947 23.38114934 5.87168567 12.71495563 5.94500732 2.04858398 C-17.15499268 2.04858398 -40.25499268 2.04858398 -64.05499268 2.04858398 C-64.05499268 31.74858398 -64.05499268 61.44858398 -64.05499268 92.04858398 C-64.38499268 92.04858398 -64.71499268 92.04858398 -65.05499268 92.04858398 C-65.05499268 62.01858398 -65.05499268 31.98858398 -65.05499268 1.04858398 C-55.03124268 0.88358398 -45.00749268 0.71858398 -34.67999268 0.54858398 C-29.96129883 0.47027344 -29.96129883 0.47027344 -25.14727783 0.39038086 C-22.629538 0.3493007 -20.11179718 0.30828106 -17.59405518 0.26733398 C-16.30652344 0.24574219 -15.0189917 0.22415039 -13.69244385 0.2019043 C-9.12837185 0.12821949 -4.56408067 0.07258323 0 0 Z " transform="translate(563.0549926757813,981.951416015625)" style="fill: #3B4999;"/><path d="M0 0 C23.1 0 46.2 0 70 0 C70 0.66 70 1.32 70 2 C69.030625 2.12375 68.06125 2.2475 67.0625 2.375 C66.051875 2.58125 65.04125 2.7875 64 3 C63.67 3.66 63.34 4.32 63 5 C63 4.34 63 3.68 63 3 C42.87 3 22.74 3 2 3 C2.09087532 19.13196929 2.09087532 19.13196929 2.20898438 35.26367188 C2.26322497 41.84722721 2.31433844 48.43069891 2.34643555 55.0144043 C2.37252609 60.32487542 2.41296933 65.63506433 2.46318626 70.94536018 C2.47981609 72.96700583 2.49135448 74.98870024 2.49761391 77.01040459 C2.50729728 79.85155398 2.53540704 82.69198765 2.56762695 85.53295898 C2.56619186 86.36086945 2.56475677 87.18877991 2.5632782 88.04177856 C2.65574378 93.84182114 3.95626178 98.59635592 6 104 C6.47916667 105.625 6.95833333 107.25 7.4375 108.875 C8.63139211 112.48793004 9.72376949 113.95235593 13 116 C13.433125 116.804375 13.86625 117.60875 14.3125 118.4375 C16.97157168 122.47534959 20.58582909 124.49353058 25.234375 125.46875 C27.14885401 125.71315158 29.07471872 125.86489254 31 126 C28.24412199 128.06690851 26.85230629 127.98472134 23.375 127.625 C13.85958501 124.78986704 8.07620543 117.4425173 3.375 109.125 C0.27990912 102.09070254 -0.28840209 95.66898132 -0.22705078 88.09570312 C-0.22748886 86.66017593 -0.22748886 86.66017593 -0.22793579 85.19564819 C-0.2265513 82.05742066 -0.21103173 78.91943565 -0.1953125 75.78125 C-0.19157924 73.59550099 -0.18873375 71.40975031 -0.18673706 69.22399902 C-0.17912528 63.48982061 -0.15949793 57.75574459 -0.1373291 52.02160645 C-0.11320714 45.13156245 -0.104078 38.2414841 -0.09242249 31.35140991 C-0.0730721 20.90086888 -0.03473226 10.45055221 0 0 Z " transform="translate(967,984)" style="fill: #63A2E3;"/><path d="M0 0 C0 0.33 0 0.66 0 1 C-2.31 1 -4.62 1 -7 1 C-7 1.66 -7 2.32 -7 3 C-12.11797854 4.04724763 -16.98038253 4.11369733 -22.17401123 4.05537415 C-23.08835882 4.04932275 -24.00270642 4.04327136 -24.94476151 4.0370366 C-28.00327095 4.01563597 -31.06166759 3.98688635 -34.12011719 3.95825195 C-36.31476981 3.94155685 -38.50942639 3.92537495 -40.7040863 3.90966797 C-45.42672889 3.87514408 -50.14933663 3.83771996 -54.87194061 3.79827309 C-62.3332186 3.73671081 -69.79454534 3.68614746 -77.25592041 3.63798523 C-79.80979548 3.62136114 -82.36367044 3.60472227 -84.91754532 3.58806896 C-86.19626023 3.57973203 -87.47497514 3.5713951 -88.79243898 3.56280553 C-95.40118583 3.51933766 -102.00992226 3.47440872 -108.61865234 3.4284668 C-109.28164181 3.42386144 -109.94463127 3.41925608 -110.62771133 3.41451117 C-121.38958607 3.33938831 -132.1513492 3.25312545 -142.91311345 3.16371892 C-153.96249223 3.072282 -165.0119175 2.996377 -176.06149602 2.93334931 C-182.26555713 2.89734563 -188.46937052 2.85380517 -194.67324066 2.79284096 C-200.50081746 2.73562322 -206.32821954 2.69674919 -212.15602303 2.6722641 C-214.2999415 2.65989597 -216.4438323 2.64059119 -218.58762169 2.61401176 C-221.50330207 2.57885035 -224.41805885 2.56807845 -227.33392334 2.56367493 C-228.62056794 2.53933828 -228.62056794 2.53933828 -229.93320537 2.51450998 C-232.52235916 2.47963116 -232.52235916 2.47963116 -236 3 C-237.64988079 4.88249386 -237.64988079 4.88249386 -238 7 C-238.66 6.67 -239.32 6.34 -240 6 C-240 5.34 -240 4.68 -240 4 C-240.99 3.67 -241.98 3.34 -243 3 C-242.34 3 -241.68 3 -241 3 C-241 2.34 -241 1.68 -241 1 C-212.31984801 0.87224647 -183.63969462 0.74481185 -154.95953926 0.61781773 C-151.56775272 0.60279881 -148.1759662 0.58777719 -144.78417969 0.57275391 C-144.10898248 0.56976329 -143.43378527 0.56677268 -142.73812754 0.56369144 C-131.82885477 0.51536516 -120.91958297 0.46682073 -110.01031153 0.41819459 C-98.80278195 0.36824392 -87.59525132 0.31853481 -76.38771975 0.26903296 C-70.09837754 0.24124639 -63.80903585 0.21335226 -57.51969528 0.18519592 C-51.59200976 0.15866212 -45.664323 0.13242228 -39.73663521 0.10640144 C-37.56878805 0.09683458 -35.40094134 0.08716315 -33.23309517 0.07737541 C-22.15531221 0.02741993 -11.07792244 -0.01572137 0 0 Z " transform="translate(908,785)" style="fill: #442E6E;"/><path d="M0 0 C16.5 0 33 0 50 0 C50 0.33 50 0.66 50 1 C33.83 1 17.66 1 1 1 C1 42.25 1 83.5 1 126 C37.96 125.67 74.92 125.34 113 125 C108.20430306 122.93783911 108.20430306 122.93783911 103.3828125 120.9375 C102.26519531 120.4734375 102.26519531 120.4734375 101.125 120 C99.98417969 119.5359375 99.98417969 119.5359375 98.8203125 119.0625 C97 118 97 118 96 115 C94.515 114.505 94.515 114.505 93 114 C91.39453125 112.44140625 91.39453125 112.44140625 89.8125 110.5625 C89.28269531 109.94503906 88.75289062 109.32757812 88.20703125 108.69140625 C87 107 87 107 87 105 C85.02 104.505 85.02 104.505 83 104 C83 103.34 83 102.68 83 102 C82.34 102 81.68 102 81 102 C81 100.02 81 98.04 81 96 C85.68703428 100.43368107 85.68703428 100.43368107 87.3125 103.375 C89.87753995 107.36506215 93.3173081 110.05510767 97 113 C97.7321875 113.59167969 98.464375 114.18335938 99.21875 114.79296875 C105.40525256 119.46377819 111.86415308 122.17224706 119.0703125 124.8359375 C120.52050781 125.41214844 120.52050781 125.41214844 122 126 C122 126.33 122 126.66 122 127 C81.74 127 41.48 127 0 127 C0 85.09 0 43.18 0 0 Z " transform="translate(856,1020)" style="fill: #5B91D6;"/><path d="M0 0 C41.91 0 83.82 0 127 0 C127 0.66 127 1.32 127 2 C72.55 2.495 72.55 2.495 17 3 C18.65 3.66 20.3 4.32 22 5 C25.3125 7 25.3125 7 28 9 C28 9.66 28 10.32 28 11 C28.8353125 11.0928125 28.8353125 11.0928125 29.6875 11.1875 C32.94344904 12.33148209 34.607132 14.54876936 37 17 C38.2684375 17.6496875 38.2684375 17.6496875 39.5625 18.3125 C43.03414636 20.71594748 44.8068603 23.96346895 46 28 C45.6015625 30.25390625 45.6015625 30.25390625 45 32 C44.59910156 31.29875 44.19820312 30.5975 43.78515625 29.875 C39.65778755 22.98669306 35.29469259 17.95636155 29 13 C28.45988281 12.52949219 27.91976563 12.05898438 27.36328125 11.57421875 C19.86046838 5.46991508 9.29377311 3.04463008 0 1 C0 0.67 0 0.34 0 0 Z " transform="translate(1194,984)" style="fill: #67A1E3;"/><path d="M0 0 C9.57 0 19.14 0 29 0 C29 0.33 29 0.66 29 1 C19.76 1 10.52 1 1 1 C1.01571045 5.5012854 1.01571045 5.5012854 1.03173828 10.09350586 C1.06504929 20.06786892 1.08703762 30.04223459 1.10362434 40.01663876 C1.1140104 46.0572653 1.12807375 52.0978343 1.15087891 58.13842773 C1.17279353 63.98046488 1.18460744 69.82244706 1.18975449 75.66452217 C1.19341711 77.88055853 1.20056804 80.09659228 1.21146011 82.3126049 C1.27143782 95.03447852 0.88561021 107.40706093 -1 120 C-1.99 120 -2.98 120 -4 120 C-4.10957031 120.75925781 -4.21914063 121.51851562 -4.33203125 122.30078125 C-4.56986328 123.79158203 -4.56986328 123.79158203 -4.8125 125.3125 C-4.96332031 126.29863281 -5.11414063 127.28476563 -5.26953125 128.30078125 C-6.05519316 131.20394906 -6.80174888 132.06236628 -9 134 C-9.7115625 135.5159375 -9.7115625 135.5159375 -10.4375 137.0625 C-12.16468917 140.30961563 -12.8474354 140.52223535 -16 142 C-16.4125 142.721875 -16.825 143.44375 -17.25 144.1875 C-21.32950399 150.7438457 -26.76170659 154.50709935 -34.21484375 156.296875 C-35.09849609 156.64492187 -35.09849609 156.64492187 -36 157 C-36.33 157.99 -36.66 158.98 -37 160 C-38.65 160 -40.3 160 -42 160 C-42 160.66 -42 161.32 -42 162 C-45.3 162.33 -48.6 162.66 -52 163 C-48.55668458 160.41751343 -46.22990086 159.17764856 -42.3125 157.6875 C-24.08240378 150.29331968 -13.3654107 136.93243945 -5.8125 119.125 C-0.73389348 105.26269548 -0.52979496 92.24468252 -0.48828125 77.63671875 C-0.47140949 75.39084406 -0.45325595 73.14497866 -0.43388367 70.89912415 C-0.3866487 65.02864489 -0.35666848 59.15820335 -0.33044434 53.28759766 C-0.30050428 47.28084874 -0.25402053 41.27422947 -0.20898438 35.26757812 C-0.12325308 23.51177215 -0.05730608 11.75597894 0 0 Z " transform="translate(610,984)" style="fill: #689FE3;"/><path d="M0 0 C1 2 1 2 -0.1875 5.8125 C-2.14308952 10.7327275 -4.55948429 14.03965619 -9 17 C-9.99 17 -10.98 17 -12 17 C-11.505 18.98 -11.505 18.98 -11 21 C-11.66 21 -12.32 21 -13 21 C-13.33 21.66 -13.66 22.32 -14 23 C-14.99 23.2475 -15.98 23.495 -17 23.75 C-17.99 24.1625 -18.98 24.575 -20 25 C-20.65772428 28.02934491 -20.65772428 28.02934491 -21 31 C-22.9375 31.5625 -22.9375 31.5625 -25 32 C-25.68753301 33.65816784 -26.35561283 35.32459336 -27 37 C-27.99 37 -28.98 37 -30 37 C-30.33 37.99 -30.66 38.98 -31 40 C-32.7421875 41.60546875 -32.7421875 41.60546875 -34.875 43.1875 C-35.57367187 43.71730469 -36.27234375 44.24710938 -36.9921875 44.79296875 C-39 46 -39 46 -42 46 C-42.33 46.99 -42.66 47.98 -43 49 C-44.32 49 -45.64 49 -47 49 C-48.20943648 50.50362374 -49.4151616 52.01093156 -50.578125 53.55078125 C-52.87115039 55.88790329 -55.90243117 56.1552085 -59 57 C-59.61875 57.825 -60.2375 58.65 -60.875 59.5 C-63.61334789 62.72158575 -65.72057603 62.91022674 -69.78125 63.54296875 C-72.12343035 64.02542491 -73.9147456 64.84837086 -76 66 C-76.33 64.68 -76.66 63.36 -77 62 C-76.09459473 61.56300781 -76.09459473 61.56300781 -75.17089844 61.1171875 C-60.19386181 53.85420977 -46.77026053 46.04856122 -33.59375 35.8828125 C-31 34 -31 34 -28.65625 32.9296875 C-28.1096875 32.62289062 -27.563125 32.31609375 -27 32 C-27 31.01 -27 30.02 -27 29 C-25.49609375 27.421875 -25.49609375 27.421875 -23.4375 25.75 C-14.42630237 18.16162305 -7.00626937 9.46733234 0 0 Z " transform="translate(1051,703)" style="fill: #503A74;"/><path d="M0 0 C0.65421936 -0.00014603 1.30843872 -0.00029205 1.98248291 -0.0004425 C4.13052768 0.00025045 6.27848418 0.00801375 8.42651367 0.01586914 C9.92152357 0.01773552 11.41653407 0.01915838 12.9115448 0.02015686 C16.83570053 0.02396475 20.75981892 0.03378021 24.68395996 0.04486084 C28.69254044 0.05511219 32.70112698 0.05966245 36.7097168 0.06469727 C44.56715576 0.07540409 52.42456444 0.09245967 60.28198242 0.11352539 C56.88300023 2.37951352 53.31456167 4.12914302 49.65698242 5.92602539 C43.77548221 8.83760665 37.96654051 11.82911405 32.28198242 15.11352539 C33.45849482 11.58398821 34.16575786 11.32616045 37.28198242 9.55102539 C40.36701069 7.89977991 40.36701069 7.89977991 42.28198242 5.11352539 C38.99094534 3.46800685 35.33411663 3.92885798 31.71557617 3.91040039 C30.84868668 3.90470032 29.98179718 3.89900024 29.08863831 3.89312744 C27.24172182 3.88365973 25.39478831 3.87713646 23.54785156 3.87329102 C20.78247124 3.86374287 18.01788616 3.83280645 15.25268555 3.80102539 C3.91710319 3.73399999 -6.6407894 4.73614087 -17.71801758 7.11352539 C-19.7384149 7.51157821 -21.75914683 7.90794563 -23.78051758 8.30102539 C-25.09345509 8.56972974 -26.40616941 8.83955219 -27.71801758 9.11352539 C-27.71801758 9.77352539 -27.71801758 10.43352539 -27.71801758 11.11352539 C-31.03051758 12.80102539 -31.03051758 12.80102539 -34.71801758 14.11352539 C-35.70801758 13.78352539 -36.69801758 13.45352539 -37.71801758 13.11352539 C-27.42077963 4.8405308 -13.16973441 -0.02480176 0 0 Z " transform="translate(288.718017578125,983.886474609375)" style="fill: #5CA3E2;"/><path d="M0 0 C0.33 0 0.66 0 1 0 C1.17845497 18.09989573 1.34400242 36.19986336 1.49477577 54.30001068 C1.56509586 62.7069097 1.63941541 71.11373557 1.72363281 79.52050781 C1.79714786 86.86001229 1.86266777 94.19954045 1.91914403 101.53919649 C1.94922719 105.41443097 1.98293369 109.28954672 2.02626419 113.16465759 C2.2214472 130.87592538 1.94056895 148.36722333 0 166 C-0.11247133 167.03975605 -0.11247133 167.03975605 -0.22721481 168.10051727 C-0.59865617 171.49235991 -1.02260181 174.87148972 -1.5 178.25 C-1.61730469 179.1575 -1.73460937 180.065 -1.85546875 181 C-1.97535156 181.87140625 -2.09523438 182.7428125 -2.21875 183.640625 C-2.32123047 184.38860352 -2.42371094 185.13658203 -2.52929688 185.90722656 C-3.04343916 188.19313304 -3.87685196 189.94999241 -5 192 C-6.61117052 195.08807684 -7.97014558 197.89650466 -8.9375 201.25 C-10 204 -10 204 -12.06640625 205.171875 C-13.02353516 205.58179688 -13.02353516 205.58179688 -14 206 C-13.56599454 204.35324171 -13.12756083 202.70765047 -12.6875 201.0625 C-12.44386719 200.14597656 -12.20023438 199.22945312 -11.94921875 198.28515625 C-11.21745259 195.75258284 -10.41809552 193.29598495 -9.5546875 190.80859375 C-7.80728569 185.61527429 -6.59468209 180.35151089 -5.4375 175 C-5.22931641 174.08605469 -5.02113281 173.17210937 -4.80664062 172.23046875 C-0.65179504 153.18851188 -0.66122388 134.17647731 -0.59528303 114.79465556 C-0.57947529 110.74811836 -0.55274308 106.70165233 -0.5272522 102.65516663 C-0.48077257 95.02007739 -0.44388107 87.38497429 -0.41057932 79.74981743 C-0.37213787 71.0457959 -0.32278673 62.3418464 -0.27259517 53.63788593 C-0.16973463 35.75864359 -0.08032755 17.87935708 0 0 Z " transform="translate(1089,454)" style="fill: #564271;"/><path d="M0 0 C8.83187731 0.01485081 17.66310627 0.05633416 26.49467278 0.13209057 C30.5953189 0.16642286 34.69559004 0.1914801 38.79638672 0.19555664 C42.75191773 0.19982645 46.70660196 0.22817725 50.66186905 0.27343178 C52.17293496 0.28644942 53.68410199 0.29069939 55.19521713 0.28615379 C57.30800224 0.28127721 59.41828394 0.30719949 61.53076172 0.34057617 C63.33611893 0.35056892 63.33611893 0.35056892 65.177948 0.36076355 C66.10922516 0.57171158 67.04050232 0.78265961 68 1 C69.27932739 3.54121399 69.27932739 3.54121399 70 6 C70.66 6 71.32 6 72 6 C73.29243536 10.1196377 74.26252625 13.66831683 74 18 C74.99 18 75.98 18 77 18 C77 21.63 77 25.26 77 29 C35.915 28.505 35.915 28.505 -6 28 C-6 27.67 -6 27.34 -6 27 C21.06 27 48.12 27 76 27 C71.545 16.11 71.545 16.11 67 5 C67 4.34 67 3.68 67 3 C58.6108377 2.87572585 50.22419066 2.81081164 41.83421803 2.82121754 C37.93794764 2.82419423 34.04398526 2.80689594 30.14819336 2.74291992 C26.38653443 2.68189816 22.62821596 2.67458341 18.86621666 2.70416832 C17.43283439 2.70606889 15.99929148 2.68876193 14.56638527 2.65177345 C10.16864201 2.54549126 6.17958164 2.56174294 2 4 C-0.71188063 7.40529251 -1.97323598 10.79685544 -3 15 C-4.28497537 11.14507389 -3.4052209 9.59653164 -2.0625 5.8125 C-1.68222656 4.72582031 -1.30195312 3.63914062 -0.91015625 2.51953125 C-0.60980469 1.68808594 -0.30945312 0.85664062 0 0 Z " transform="translate(1310,1120)" style="fill: #323C8D;"/><path d="M0 0 C2 3 2 3 1.42578125 5.9609375 C1.05839844 7.08757813 0.69101563 8.21421875 0.3125 9.375 C-0.04199219 10.49648438 -0.39648438 11.61796875 -0.76171875 12.7734375 C-1.92018784 15.79203518 -3.26214846 18.28546672 -5 21 C-5.66978909 22.20660535 -6.33684235 23.41473729 -7 24.625 C-8.59531853 27.31710002 -9.80930671 28.90888367 -12 31 C-12.68486725 32.32407669 -13.34870203 33.65909241 -14 35 C-16.8928096 39.92849044 -20.31089413 43.74303484 -25 47 C-25.66 47 -26.32 47 -27 47 C-27.103125 47.598125 -27.20625 48.19625 -27.3125 48.8125 C-28.70649378 53.24793474 -32.15812488 54.83192536 -36.08984375 57.02734375 C-37.96687872 57.98313456 -39.85679434 58.78266747 -41.8125 59.5625 C-45.22453004 60.76214688 -45.22453004 60.76214688 -47 64 C-49.09375 64.7734375 -49.09375 64.7734375 -51.5 65.375 C-53.91526891 66.0466425 -53.91526891 66.0466425 -56 67 C-57.36078035 69.52372901 -57.36078035 69.52372901 -58 72 C-60.125 72.8125 -60.125 72.8125 -62 73 C-62.33 71.68 -62.66 70.36 -63 69 C-62.36835937 68.59910156 -61.73671875 68.19820312 -61.0859375 67.78515625 C-59.16317118 66.56334076 -57.24284163 65.33768671 -55.32421875 64.109375 C-53.10998489 62.70433824 -50.88326845 61.31878076 -48.64453125 59.953125 C-25.3759002 45.65740804 -8.71701692 26.15105076 0 0 Z " transform="translate(1350,608)" style="fill: #503A74;"/><path d="M0 0 C2.7081604 -0.36076355 2.7081604 -0.36076355 6.19384766 -0.34057617 C7.49504547 -0.34034958 8.79624329 -0.34012299 10.13687134 -0.33988953 C11.56260519 -0.32456837 12.98833556 -0.30892037 14.4140625 -0.29296875 C15.86851566 -0.28737443 17.32297447 -0.28310356 18.7774353 -0.28010559 C22.60806855 -0.26864374 26.43836128 -0.23916547 30.26885986 -0.20599365 C34.17658888 -0.17532138 38.08437284 -0.16160637 41.9921875 -0.14648438 C49.66161368 -0.11429667 57.33075915 -0.06308463 65 0 C64.67 0.99 64.34 1.98 64 3 C43.21 3 22.42 3 1 3 C0.01 6.63 -0.98 10.26 -2 14 C-2.99 14.33 -3.98 14.66 -5 15 C-5.67117848 17.94363898 -5.67117848 17.94363898 -6 21 C-6.33 21.66 -6.66 22.32 -7 23 C33.095 22.505 33.095 22.505 74 22 C74 22.66 74 23.32 74 24 C46.61 24 19.22 24 -9 24 C-7.6168488 19.15897081 -6.1798774 14.48233756 -4.5 9.75 C-4.0771875 8.54859375 -3.654375 7.3471875 -3.21875 6.109375 C-2 3 -2 3 0 0 Z " transform="translate(1312,1123)" style="fill: #529BDA;"/><path d="M0 0 C19.14 0 38.28 0 58 0 C58.03738281 6.87714844 58.07476562 13.75429688 58.11328125 20.83984375 C58.14360079 25.22853942 58.17477471 29.61719649 58.20898438 34.00585938 C58.26305751 40.9530224 58.31417577 47.90010907 58.34643555 54.84741211 C58.37267931 60.4561659 58.41322643 66.06465932 58.46318626 71.6732502 C58.47971381 73.79992974 58.49131502 75.92665416 58.49761391 78.0533886 C58.53281315 88.85773512 58.77775067 99.2704234 61.04678059 109.86872005 C61.7405834 113.11663587 62.07473461 114.77579616 61 118 C61 117.34 61 116.68 61 116 C60.34 116 59.68 116 59 116 C55.51862704 103.53321589 56.86950077 89.32455369 56.90234375 76.51171875 C56.90421231 74.35553521 56.90563414 72.19935124 56.90663147 70.04316711 C56.91042219 64.40938107 56.92022248 58.77562142 56.93133545 53.1418457 C56.94162422 47.37646847 56.94614498 41.61108692 56.95117188 35.84570312 C56.96184833 24.56379058 56.97888263 13.2818975 57 2 C50.60934676 2.09203265 44.21908221 2.1993052 37.82885742 2.31738281 C35.65313586 2.35576164 33.47734892 2.39059849 31.30151367 2.421875 C28.18123941 2.46733313 25.06141888 2.52535779 21.94140625 2.5859375 C20.96224747 2.59748871 19.98308868 2.60903992 18.97425842 2.62094116 C18.07340012 2.64081085 17.17254181 2.66068054 16.24438477 2.68115234 C15.44718521 2.69447601 14.64998566 2.70779968 13.82862854 2.7215271 C12.92345741 2.85937119 12.92345741 2.85937119 12 3 C11.67 3.66 11.34 4.32 11 5 C9.53932801 4.54917531 8.08151968 4.08906463 6.625 3.625 C5.81289063 3.36976563 5.00078125 3.11453125 4.1640625 2.8515625 C2 2 2 2 0 0 Z " transform="translate(400,984)" style="fill: #5CAEEC;"/><path d="M0 0 C0.97920084 3.41632293 0.80093488 5.52928219 0 9 C0 9.99 0 10.98 0 12 C0 12.99 0 13.98 0 15 C-0.66 15 -1.32 15 -2 15 C-2.2475 15.763125 -2.495 16.52625 -2.75 17.3125 C-3.1625 18.529375 -3.575 19.74625 -4 21 C-4.27972656 21.8353125 -4.55945312 22.670625 -4.84765625 23.53125 C-6.42144203 28.06783087 -8.05344911 32.29718311 -10.5 36.4375 C-13.13162387 40.90721192 -14.6188373 45.54276427 -16.10546875 50.49609375 C-17 53 -17 53 -19 55 C-19.36760731 57.32817964 -19.70241581 59.6618385 -20 62 C-20.495 62.495 -20.495 62.495 -21 63 C-21.4896472 65.31469584 -21.89901 67.63794836 -22.3046875 69.96875 C-22.53414062 70.6390625 -22.76359375 71.309375 -23 72 C-24.485 72.495 -24.485 72.495 -26 73 C-26.38749213 75.32495277 -26.71758117 77.6599583 -27 80 C-27.66 80.99 -28.32 81.98 -29 83 C-29.66 83 -30.32 83 -31 83 C-31 83.66 -31 84.32 -31 85 C-31.66 85 -32.32 85 -33 85 C-31.29044245 78.71772346 -29.14625144 72.78260563 -26.5859375 66.80078125 C-24.44709697 61.74469786 -22.4888305 56.61641038 -20.5 51.5 C-17.80114285 44.56898197 -15.0698681 37.66091622 -12.17578125 30.80859375 C-7.91149054 20.62246411 -3.93227144 10.31786266 0 0 Z " transform="translate(1311,1009)" style="fill: #2A418F;"/><path d="M0 0 C0.66 0 1.32 0 2 0 C2.06965442 12.60487026 2.12288967 25.20969438 2.15543652 37.81471825 C2.17106105 43.66837765 2.19224068 49.52190491 2.22631836 55.37548828 C2.25902628 61.02946895 2.27687716 66.68332288 2.28463173 72.3373909 C2.29015473 74.48944721 2.30093965 76.64149695 2.31719017 78.79349899 C2.3391163 81.81870003 2.34196058 84.84338404 2.34057617 87.86865234 C2.351362 88.74907196 2.36214783 89.62949158 2.3732605 90.53659058 C2.34247411 96.7949114 1.05029272 102.10642273 -1 108 C-1.391875 109.19625 -1.78375 110.3925 -2.1875 111.625 C-2.5896875 112.800625 -2.5896875 112.800625 -3 114 C-3.66 114 -4.32 114 -5 114 C-5.268125 114.969375 -5.53625 115.93875 -5.8125 116.9375 C-6.204375 117.948125 -6.59625 118.95875 -7 120 C-8.485 120.495 -8.485 120.495 -10 121 C-10 121.66 -10 122.32 -10 123 C-12.97 123.495 -12.97 123.495 -16 124 C-14.948125 123.01 -14.948125 123.01 -13.875 122 C-0.67220188 108.61019341 -0.39753441 94.9800448 -0.390625 77.05078125 C-0.37562713 74.82446601 -0.35889664 72.59816183 -0.34051514 70.37187195 C-0.29701009 64.54407206 -0.27687987 58.71642224 -0.26177979 52.88848877 C-0.24214786 46.92882476 -0.20018476 40.96932137 -0.16015625 35.00976562 C-0.08503663 23.3398935 -0.03463479 11.67005764 0 0 Z " transform="translate(1037,984)" style="fill: #294A97;"/><path d="M0 0 C1.06546953 3.1964086 1.07427838 5.65747276 1 9 C0.34 9 -0.32 9 -1 9 C-1 9.66 -1 10.32 -1 11 C-1.61875 11.061875 -2.2375 11.12375 -2.875 11.1875 C-5.24679221 11.81375226 -5.24679221 11.81375226 -6.125 14.375 C-6.41375 15.24125 -6.7025 16.1075 -7 17 C-7.66 17.99 -8.32 18.98 -9 20 C-9.66 20 -10.32 20 -11 20 C-11.495 22.475 -11.495 22.475 -12 25 C-12.66 25 -13.32 25 -14 25 C-14.103125 25.598125 -14.20625 26.19625 -14.3125 26.8125 C-15.12255514 29.38994819 -15.80289005 30.43063575 -18 32 C-20.6875 32.1875 -20.6875 32.1875 -23 32 C-23.33 32.99 -23.66 33.98 -24 35 C-25.485 35.495 -25.485 35.495 -27 36 C-27.33 36.99 -27.66 37.98 -28 39 C-32.83162638 44.13360303 -40.25812333 50.86393176 -47.4375 51.125 C-48.283125 51.08375 -49.12875 51.0425 -50 51 C-51.24174796 52.9001177 -51.24174796 52.9001177 -52 55 C-53.485 55.495 -53.485 55.495 -55 56 C-54.89453125 53.734375 -54.89453125 53.734375 -54 51 C-51.87996084 49.51204099 -49.98119422 48.39202209 -47.6875 47.25 C-40.59040554 43.4476614 -34.25555561 39.09464476 -28 34 C-27.02417969 33.21367188 -26.04835938 32.42734375 -25.04296875 31.6171875 C-14.76851224 22.81051049 -6.73801674 11.70409828 0 0 Z " transform="translate(620,845)" style="fill: #503873;"/><path d="M0 0 C-3.25688551 2.17125701 -4.185751 2.25504094 -7.95439148 2.2784729 C-9.48774643 2.29521812 -9.48774643 2.29521812 -11.05207825 2.31230164 C-12.17273178 2.31446182 -13.29338531 2.31662201 -14.44799805 2.31884766 C-15.62861816 2.32889328 -16.80923828 2.3389389 -18.02563477 2.34928894 C-21.26296545 2.37490275 -24.50020041 2.39174465 -27.737602 2.40471697 C-31.12092069 2.42033806 -34.50415028 2.44713151 -37.8874054 2.4727478 C-44.29402049 2.51955376 -50.70065231 2.55628902 -57.10735112 2.58942068 C-64.40117004 2.62762927 -71.69489951 2.67704271 -78.98864305 2.72740483 C-93.99236261 2.83075168 -108.99613642 2.92000308 -124 3 C-124.33 2.01 -124.66 1.02 -125 0 C-108.99738556 -0.15381996 -92.99472978 -0.30185543 -76.99199867 -0.4429636 C-69.5620202 -0.5086149 -62.13206814 -0.57617455 -54.70214844 -0.64819336 C-48.22787325 -0.71094422 -41.75357712 -0.77014858 -35.27923048 -0.82505554 C-31.84964198 -0.85426573 -28.42009074 -0.88527796 -24.99055862 -0.92053413 C-21.16643501 -0.95978044 -17.34226934 -0.99111037 -13.51806641 -1.02172852 C-12.37511612 -1.03467453 -11.23216583 -1.04762054 -10.05458069 -1.06095886 C-9.01689041 -1.06799835 -7.97920013 -1.07503784 -6.9100647 -1.08229065 C-5.55226363 -1.09473485 -5.55226363 -1.09473485 -4.16703224 -1.10743046 C-2 -1 -2 -1 0 0 Z " transform="translate(982,1147)" style="fill: #283A89;"/><path d="M0 0 C3.11641926 3.11641926 2.30022858 6.91107093 2.30297852 11.09619141 C2.31141785 12.03948303 2.31985718 12.98277466 2.32855225 13.95465088 C2.35443266 17.08695965 2.3664989 20.21917385 2.37890625 23.3515625 C2.39507759 25.52673085 2.41225719 27.70189192 2.43040466 29.87704468 C2.47619578 35.61802795 2.5109334 41.35902101 2.54260254 47.10009766 C2.5943565 56.26848568 2.65986344 65.43676521 2.73081779 74.60502243 C2.75357107 77.80443138 2.76990023 81.00382696 2.78553772 84.20327759 C2.79895574 86.17800029 2.8125715 88.15272165 2.82641602 90.12744141 C2.82902939 91.01190948 2.83164276 91.89637756 2.83433533 92.80764771 C2.66262326 102.36410119 2.66262326 102.36410119 6 111 C6.1953125 113.26171875 6.1953125 113.26171875 6.125 115.6875 C6.10695313 116.49574219 6.08890625 117.30398438 6.0703125 118.13671875 C6.03550781 119.05904297 6.03550781 119.05904297 6 120 C-2.12912978 107.80630534 -0.53257977 89.54846153 -0.390625 75.5859375 C-0.3831437 73.39206463 -0.37745973 71.19818498 -0.37347412 69.00430298 C-0.35836638 63.29313974 -0.31921658 57.58239815 -0.2746582 51.87139893 C-0.23338082 46.0184906 -0.21539448 40.16551263 -0.1953125 34.3125 C-0.15270476 22.87481704 -0.08463864 11.43744389 0 0 Z " transform="translate(926,984)" style="fill: #334898;"/><path d="M0 0 C1.65 0 3.3 0 5 0 C4.67 0.99 4.34 1.98 4 3 C3.34 3 2.68 3 2 3 C2 3.99 2 4.98 2 6 C2.99 6.495 2.99 6.495 4 7 C-20.42 7 -44.84 7 -70 7 C-68.68 6.34 -67.36 5.68 -66 5 C-65.34 5.33 -64.68 5.66 -64 6 C-64 5.34 -64 4.68 -64 4 C-42.88 4 -21.76 4 0 4 C0 2.68 0 1.36 0 0 Z " transform="translate(1376,1138)" style="fill: #2CB3E4;"/><path d="M0 0 C0.33 0 0.66 0 1 0 C3.15870876 10.73572125 3.28677931 21.09816899 3 32 C2.98066406 32.85625977 2.96132812 33.71251953 2.94140625 34.59472656 C2.87621914 37.147569 2.7868755 39.69827745 2.6875 42.25 C2.66518311 43.02359863 2.64286621 43.79719727 2.61987305 44.59423828 C2.37149624 49.72436873 1.23455861 53.37538514 -1 58 C-1.309375 58.969375 -1.61875 59.93875 -1.9375 60.9375 C-3.99752625 66.87522272 -6.66656524 72.37766959 -11 77 C-11.66 77 -12.32 77 -13 77 C-12.08618799 74.70410417 -11.16905527 72.40998306 -10.22705078 70.12548828 C-6.13241641 60.18474381 -2.69378148 50.66404823 -1 40 C-0.86980469 39.20207031 -0.73960938 38.40414062 -0.60546875 37.58203125 C0.12885702 31.8934543 0.09685811 26.16464992 0.125 20.4375 C0.12975342 19.64577393 0.13450684 18.85404785 0.1394043 18.03833008 C0.12595514 13.23399182 -0.20726131 8.59039094 -0.88330078 3.83227539 C-1 2 -1 2 0 0 Z " transform="translate(1366,768)" style="fill: #513A75;"/><path d="M0 0 C0.33 0 0.66 0 1 0 C1.00586624 1.18493042 1.01173248 2.36986084 1.01777649 3.59069824 C1.07505797 14.77260899 1.14784817 25.95432628 1.23571491 37.13603973 C1.28038963 42.88429861 1.31965234 48.63248708 1.34643555 54.38085938 C1.37249715 59.93122259 1.41292025 65.48131447 1.46318626 71.0315094 C1.47983557 73.14608885 1.49136187 75.2607152 1.49761391 77.37535095 C1.50727589 80.3436204 1.53536086 83.31119868 1.56762695 86.27929688 C1.56619186 87.14820557 1.56475677 88.01711426 1.5632782 88.91235352 C1.6503262 94.59669318 2.77993729 98.76477223 5 104 C5.36351668 105.65628791 5.68540351 107.32313346 5.9375 109 C6.84286132 113.92242666 8.48320891 117.67426531 11 122 C11.66 122.33 12.32 122.66 13 123 C13.144375 123.66 13.28875 124.32 13.4375 125 C13.623125 125.66 13.80875 126.32 14 127 C14.99 127.33 15.98 127.66 17 128 C17.73046875 129.84765625 17.73046875 129.84765625 18.1875 132.0625 C18.34605469 132.79597656 18.50460937 133.52945312 18.66796875 134.28515625 C18.77753906 134.85105469 18.88710938 135.41695312 19 136 C12.24901529 129.84469041 8.05029027 122.43975286 4.1875 114.25 C3.88537598 113.6120752 3.58325195 112.97415039 3.27197266 112.31689453 C0.11200051 105.42060312 -0.1421809 99.52771215 -0.11352539 92.0690918 C-0.11367142 91.07349747 -0.11381744 90.07790314 -0.1139679 89.05213928 C-0.11327232 85.76781012 -0.10549652 82.48353798 -0.09765625 79.19921875 C-0.09579081 76.91950003 -0.0943675 74.63978091 -0.09336853 72.36006165 C-0.08955329 66.36448049 -0.07973146 60.36892362 -0.06866455 54.37335205 C-0.0584291 48.253462 -0.05386633 42.13356802 -0.04882812 36.01367188 C-0.03810832 24.00910392 -0.02104379 12.00455398 0 0 Z " transform="translate(460,992)" style="fill: #38378C;"/><path d="M0 0 C6.6 0 13.2 0 20 0 C20 32.67 20 65.34 20 99 C19.67 99 19.34 99 19 99 C19 67.32 19 35.64 19 3 C13.06 3 7.12 3 1 3 C1 13.89 1 24.78 1 36 C0.67 36 0.34 36 0 36 C0 24.12 0 12.24 0 0 Z " transform="translate(906,984)" style="fill: #5AAAE7;"/><path d="M0 0 C0.66 0 1.32 0 2 0 C2 0.66 2 1.32 2 2 C2.66 2 3.32 2 4 2 C5.54911821 5.09823641 5.22564397 8.35233391 5.25 11.75 C5.270625 12.45382812 5.29125 13.15765625 5.3125 13.8828125 C5.34778483 18.62862253 4.67868252 21.91939018 2 26 C1.01 26.33 0.02 26.66 -1 27 C-1.309375 27.639375 -1.61875 28.27875 -1.9375 28.9375 C-3.27961841 31.54278867 -4.31161432 31.92243927 -7 33 C-9.11346436 33.24050903 -9.11346436 33.24050903 -11.40136719 33.22705078 C-12.6922525 33.22682419 -12.6922525 33.22682419 -14.00921631 33.22659302 C-14.92914368 33.21627045 -15.84907104 33.20594788 -16.796875 33.1953125 C-17.74564514 33.1924826 -18.69441528 33.18965271 -19.67193604 33.18673706 C-22.69808639 33.17555448 -25.7239393 33.1504533 -28.75 33.125 C-30.80338114 33.11496772 -32.85676692 33.1058423 -34.91015625 33.09765625 C-39.94021854 33.07562141 -44.97005886 33.04110462 -50 33 C-50 32.34 -50 31.68 -50 31 C-48.98687744 30.98541748 -47.97375488 30.97083496 -46.92993164 30.95581055 C-43.13320469 30.89737572 -39.33704313 30.82015027 -35.54077148 30.73754883 C-33.90479786 30.70451025 -32.26871601 30.6764143 -30.63256836 30.65356445 C-14.27506347 30.53052779 -14.27506347 30.53052779 0 23 C3.5634321 18.01119506 3.7273191 12.92112347 3 7 C2.21407726 4.45704307 1.23832204 2.37345057 0 0 Z " transform="translate(1199,1028)" style="fill: #293E8B;"/><path d="M0 0 C0.969375 0.2475 1.93875 0.495 2.9375 0.75 C6.55435055 2.22626553 8.48459226 4.04069678 11 7 C11 7.66 11 8.32 11 9 C11.78375 9.144375 12.5675 9.28875 13.375 9.4375 C16 10 16 10 18 11 C18 11.66 18 12.32 18 13 C18.556875 13.12375 19.11375 13.2475 19.6875 13.375 C22.26637883 14.07199428 24.60646515 14.80323257 27 16 C27 16.99 27 17.98 27 19 C29.26962879 20.40873511 31.45727272 21.15242424 34 22 C34.495 23.485 34.495 23.485 35 25 C35.99 24.34 36.98 23.68 38 23 C38 24.32 38 25.64 38 27 C39.17981289 28.8781013 39.17981289 28.8781013 40.8125 30.5625 C41.59560547 31.43068359 41.59560547 31.43068359 42.39453125 32.31640625 C43.97522123 34.02724609 43.97522123 34.02724609 45.76171875 35.52734375 C46.17035156 36.01332031 46.57898437 36.49929688 47 37 C46.67 37.99 46.34 38.98 46 40 C45.1028125 39.05640625 44.205625 38.1128125 43.28125 37.140625 C29.58964698 22.95870956 14.98785248 12.49370861 -2.28271484 3.04638672 C-4 2 -4 2 -6 0 C-3.41956046 -1.29021977 -2.72685923 -0.83320699 0 0 Z " transform="translate(1297,683)" style="fill: #513778;"/><path d="M0 0 C0.66 0.33 1.32 0.66 2 1 C1.319375 1.66 0.63875 2.32 -0.0625 3 C-3.06010213 5.97190839 -5.74787019 9.18536092 -8.44921875 12.42578125 C-8.96097656 12.94527344 -9.47273438 13.46476563 -10 14 C-10.66 14 -11.32 14 -12 14 C-12.2475 15.0725 -12.495 16.145 -12.75 17.25 C-14.04127393 21.1238218 -15.06676794 22.3334254 -18 25 C-21.63552981 30.45329472 -23.25443657 35.72928295 -24.4375 42.109375 C-24.623125 42.73328125 -24.80875 43.3571875 -25 44 C-25.99 44.495 -25.99 44.495 -27 45 C-27.43040224 47.28948258 -27.43040224 47.28948258 -27.5625 49.9375 C-27.90619765 54.81239531 -27.90619765 54.81239531 -29 57 C-29.43212912 64.4768387 -29.15370887 71.57642552 -27.4453125 78.8671875 C-26.87422381 81.60240174 -26.85352188 84.21691577 -27 87 C-33.31290186 77.53064721 -32.47631924 60.28891741 -30.53125 49.36816406 C-26.56429484 31.92791547 -18.53120544 18.58842555 -6 6 C-5.32839844 5.31421875 -4.65679687 4.6284375 -3.96484375 3.921875 C-2.65811678 2.59970208 -1.3323541 1.29634453 0 0 Z " transform="translate(318,1001)" style="fill: #1F4890;"/><path d="M0 0 C0.66 0 1.32 0 2 0 C1.76372793 1.31504059 1.50987576 2.62691966 1.25 3.9375 C1.04117187 5.03384766 1.04117187 5.03384766 0.828125 6.15234375 C-0.36271412 10.24725752 -2.26800078 14.10300175 -4 18 C8.54 18 21.08 18 34 18 C32.68 14.7 31.36 11.4 30 8 C29.25 3.875 29.25 3.875 29 1 C30.890625 1.4921875 30.890625 1.4921875 33 3 C33.78841542 5.78298876 34.33350841 8.28795726 34.75 11.125 C34.93755859 12.25615234 34.93755859 12.25615234 35.12890625 13.41015625 C35.43510476 15.27090102 35.71964088 17.13518704 36 19 C32.80793836 20.59603082 29.32748845 20.26329788 25.81640625 20.3515625 C25.0050975 20.37471527 24.19378876 20.39786804 23.3578949 20.42172241 C21.6405971 20.46937268 19.92323078 20.51460545 18.20581055 20.55761719 C15.57639357 20.62464583 12.94744648 20.70243896 10.31835938 20.78125 C8.6510591 20.82617279 6.98374169 20.8704646 5.31640625 20.9140625 C4.13504845 20.94990952 4.13504845 20.94990952 2.92982483 20.98648071 C-0.33765135 21.06156419 -2.87344539 21.04218487 -6 20 C-6.125 12.375 -6.125 12.375 -5 9 C-4.34 9 -3.68 9 -3 9 C-2.01 6.03 -1.02 3.06 0 0 Z " transform="translate(1329,1073)" style="fill: #2E4794;"/><path d="M0 0 C2.31 0 4.62 0 7 0 C7 0.66 7 1.32 7 2 C7.81259875 2.26606489 8.62519751 2.53212978 9.46242046 2.80625725 C10.71852233 3.39715991 10.71852233 3.39715991 12 4 C12.61523914 6.24511909 12.61523914 6.24511909 12.60127258 9.09988403 C12.6081459 10.17964508 12.61501923 11.25940613 12.62210083 12.37188721 C12.60412445 13.56159119 12.58614807 14.75129517 12.56762695 15.97705078 C12.56872215 17.85017441 12.56872215 17.85017441 12.56983948 19.76113892 C12.56694713 23.19124939 12.54182907 26.61986586 12.50696969 30.0497117 C12.47576927 33.63180063 12.47278049 37.21390823 12.46684265 40.79611206 C12.45128545 47.58193762 12.41023217 54.3673617 12.3600952 61.15301025 C12.30425962 68.87715763 12.2767299 76.60132393 12.25161803 84.3256228 C12.19931749 100.21731461 12.11133943 116.10860559 12 132 C10.35 131.67 8.7 131.34 7 131 C7.495 130.01 7.495 130.01 8 129 C8.99 129.66 9.98 130.32 11 131 C11 89.75 11 48.5 11 6 C9.02 5.34 7.04 4.68 5 4 C2.125 2.4375 2.125 2.4375 0 1 C0 0.67 0 0.34 0 0 Z " transform="translate(615,501)" style="fill: #564278;"/><path d="M0 0 C6.06375 -0.0825 12.1275 -0.165 18.375 -0.25 C20.26782715 -0.28641602 22.1606543 -0.32283203 24.11083984 -0.36035156 C43.08231937 -0.57567774 43.08231937 -0.57567774 49.94482422 5.80957031 C53.86971354 10.06261971 55.13813192 13.36384184 55.0625 19.1875 C55.05347656 20.08855469 55.04445313 20.98960938 55.03515625 21.91796875 C55.02355469 22.60503906 55.01195312 23.29210938 55 24 C54.67 24 54.34 24 54 24 C53.93941406 23.39671875 53.87882812 22.7934375 53.81640625 22.171875 C53.73261719 21.37265625 53.64882812 20.5734375 53.5625 19.75 C53.48128906 18.96109375 53.40007812 18.1721875 53.31640625 17.359375 C52.89878137 14.12109403 52.89878137 14.12109403 52 11 C51.01 10.67 50.02 10.34 49 10 C48.85537827 9.35480911 48.71075653 8.70961823 48.56175232 8.0448761 C48.21500864 5.85432242 48.21500864 5.85432242 46.25672913 4.97111511 C40.68954059 3.26201438 35.62174995 2.53561546 29.80859375 2.48828125 C28.56252098 2.46135445 28.56252098 2.46135445 27.29127502 2.43388367 C24.6733996 2.38029082 22.05570096 2.34605121 19.4375 2.3125 C17.64776211 2.27928169 15.85804741 2.24478794 14.06835938 2.20898438 C9.71222137 2.12222479 5.35685003 2.06172382 1 2 C1.33 13.55 1.66 25.1 2 37 C1.34 37 0.68 37 0 37 C0 24.79 0 12.58 0 0 Z " transform="translate(1148,1021)" style="fill: #62A2E4;"/><path d="M0 0 C0.66 0.66 1.32 1.32 2 2 C1.9765625 4.1640625 1.9765625 4.1640625 1.625 6.625 C1.45871094 7.85089844 1.45871094 7.85089844 1.2890625 9.1015625 C1.14597656 10.04128906 1.14597656 10.04128906 1 11 C0.34 11 -0.32 11 -1 11 C-1.33 12.98 -1.66 14.96 -2 17 C-2.66 17 -3.32 17 -4 17 C-4.12375 17.969375 -4.2475 18.93875 -4.375 19.9375 C-4.684375 21.4534375 -4.684375 21.4534375 -5 23 C-5.66 23.33 -6.32 23.66 -7 24 C-7.268125 24.845625 -7.53625 25.69125 -7.8125 26.5625 C-10.04648322 33.02929352 -13.29384859 38.08721046 -19 42 C-19.66 41.34 -20.32 40.68 -21 40 C-20.62230469 39.44957031 -20.24460937 38.89914062 -19.85546875 38.33203125 C-15.57352265 31.86398621 -11.8602919 25.17391343 -8.25 18.3125 C-7.77844482 17.42216064 -7.30688965 16.53182129 -6.82104492 15.61450195 C-4.15897402 10.50368692 -1.90026302 5.44108646 0 0 Z " transform="translate(1074,660)" style="fill: #543B77;"/><path d="M0 0 C1.12019531 -0.00128906 2.24039062 -0.00257813 3.39453125 -0.00390625 C4.57402344 -0.00003906 5.75351563 0.00382813 6.96875 0.0078125 C8.73798828 0.00201172 8.73798828 0.00201172 10.54296875 -0.00390625 C12.22326172 -0.00197266 12.22326172 -0.00197266 13.9375 0 C14.97326172 0.00112793 16.00902344 0.00225586 17.07617188 0.00341797 C19.46875 0.1328125 19.46875 0.1328125 20.46875 1.1328125 C20.50955783 3.13239614 20.51129356 5.13326504 20.46875 7.1328125 C18.46875 4.1328125 18.46875 4.1328125 18.46875 2.1328125 C10.87875 2.4628125 3.28875 2.7928125 -4.53125 3.1328125 C-4.86125 36.1328125 -5.19125 69.1328125 -5.53125 103.1328125 C-5.86125 103.1328125 -6.19125 103.1328125 -6.53125 103.1328125 C-6.55437079 89.85093841 -6.57216374 76.56906907 -6.58306217 63.28717899 C-6.58829158 57.1205633 -6.59539027 50.95396132 -6.60668945 44.78735352 C-6.61751629 38.84165244 -6.6235264 32.89596461 -6.62612724 26.95025444 C-6.62798186 24.67634307 -6.63160317 22.40243246 -6.63698006 20.12852669 C-6.64418778 16.9555413 -6.64524106 13.78261133 -6.64477539 10.60961914 C-6.64837067 9.65943909 -6.65196594 8.70925903 -6.65567017 7.73028564 C-6.6433198 0.00723448 -6.6433198 0.00723448 0 0 Z " transform="translate(1085.53125,984.8671875)" style="fill: #55ACE6;"/><path d="M0 0 C0 32.67 0 65.34 0 99 C-6.60130123 92.39869877 -12.32508749 85.40424975 -18 78 C-16.515 77.505 -16.515 77.505 -15 77 C-11 81.22857143 -11 81.22857143 -11 84 C-10.1028125 84.37125 -10.1028125 84.37125 -9.1875 84.75 C-6.13551797 86.49398973 -5.51661464 88.90083095 -4 92 C-3.01 92.33 -2.02 92.66 -1 93 C-0.953756 81.15236087 -0.91817134 69.30474304 -0.89637566 57.4570322 C-0.88591734 51.95626715 -0.87172097 46.45556362 -0.84912109 40.95483398 C-0.82746549 35.65102975 -0.81544683 30.34728488 -0.81024551 25.04343987 C-0.80653661 23.01513674 -0.7992946 20.98683704 -0.78853989 18.95855904 C-0.77412161 16.12798038 -0.77201797 13.2976502 -0.77294922 10.46704102 C-0.76575867 9.61971909 -0.75856812 8.77239716 -0.75115967 7.8993988 C-0.75821416 5.93119658 -0.86788524 3.96377581 -1 2 C-1.66 1.67 -2.32 1.34 -3 1 C-1 0 -1 0 0 0 Z " transform="translate(1131,820)" style="fill: #3D3086;"/><path d="M0 0 C1.94218842 4.85547105 -0.43704872 9.31114616 -2 14 C-2.66 14 -3.32 14 -4 14 C-4.72455635 15.64232772 -5.37774395 17.31624835 -6 19 C-8.11293291 24.46876753 -11.56787419 27.70941873 -15.7265625 31.6796875 C-17.84710424 33.84395175 -19.49288999 35.99843284 -21.1875 38.5 C-23.29685621 41.47791466 -23.68500147 41.9066671 -27.375 43 C-28.24125 43 -29.1075 43 -30 43 C-30 43.66 -30 44.32 -30 45 C-31.7015625 45.185625 -31.7015625 45.185625 -33.4375 45.375 C-34.613125 45.58125 -35.78875 45.7875 -37 46 C-37.33 46.66 -37.66 47.32 -38 48 C-40.72265625 48.4140625 -40.72265625 48.4140625 -44.0625 48.625 C-45.16722656 48.69976563 -46.27195312 48.77453125 -47.41015625 48.8515625 C-48.26480469 48.90054687 -49.11945313 48.94953125 -50 49 C-47.58745676 46.58745676 -45.88685821 46.25852449 -42.625 45.3125 C-24.89340165 39.57205449 -13.00719768 28.08568285 -4.625 11.6875 C-2.75778509 7.86440355 -1.28240563 4.05695612 0 0 Z " transform="translate(1074,1098)" style="fill: #6496DC;"/><path d="M0 0 C3.00288687 2.54496864 4.20295625 5.33090573 5.6875 8.9375 C6.12449219 9.97777344 6.56148437 11.01804687 7.01171875 12.08984375 C8 15 8 15 8 19 C-18.4 19 -44.8 19 -72 19 C-71.67 18.34 -71.34 17.68 -71 17 C-68.14634705 16.75949097 -68.14634705 16.75949097 -64.27709961 16.77294922 C-63.5746965 16.77265717 -62.8722934 16.77236511 -62.14860535 16.77206421 C-59.81639443 16.77346261 -57.48449916 16.78904732 -55.15234375 16.8046875 C-53.53951695 16.80841583 -51.9266879 16.81126365 -50.31385803 16.81326294 C-46.06079904 16.82091362 -41.80787581 16.84057426 -37.55487061 16.8626709 C-33.21823971 16.88309856 -28.88158697 16.89225804 -24.54492188 16.90234375 C-16.02988549 16.92381894 -7.51495961 16.95797199 1 17 C1 16.01 1 15.02 1 14 C2.5 12.3125 2.5 12.3125 4 11 C2.35 11 0.7 11 -1 11 C-1 9.02 -1 7.04 -1 5 C-0.34 5 0.32 5 1 5 C0.505 2.525 0.505 2.525 0 0 Z " transform="translate(1377,1127)" style="fill: #45B0E8;"/><path d="M0 0 C0 0.66 0 1.32 0 2 C-1.98 1.67 -3.96 1.34 -6 1 C-6 0.34 -6 -0.32 -6 -1 C-6.721875 -1.12375 -7.44375 -1.2475 -8.1875 -1.375 C-11 -2 -11 -2 -13.05859375 -3.01953125 C-17.33012121 -4.44337374 -21.40226132 -4.32887166 -25.875 -4.3125 C-26.74769531 -4.32861328 -27.62039063 -4.34472656 -28.51953125 -4.36132812 C-34.15410617 -4.36556465 -37.9719144 -3.53680903 -43 -1 C-44.32276056 -0.62691369 -45.65232077 -0.26953585 -47 0 C-47 0.66 -47 1.32 -47 2 C-48.33333333 2.66666667 -49.66666667 3.33333333 -51 4 C-51.99 5.485 -51.99 5.485 -53 7 C-53.99 7.33 -54.98 7.66 -56 8 C-56.33 8.66 -56.66 9.32 -57 10 C-57.66 10 -58.32 10 -59 10 C-59.309375 10.66 -59.61875 11.32 -59.9375 12 C-60.288125 12.66 -60.63875 13.32 -61 14 C-61.99 14 -62.98 14 -64 14 C-61.67094298 10.17369204 -60.14268592 7.77543682 -56 6 C-56 5.34 -56 4.68 -56 4 C-39.73693839 -10.32278311 -18.15963243 -11.07111384 0 0 Z " transform="translate(400,1025)" style="fill: #699BE1;"/><path d="M0 0 C1.10097977 3.33814366 0.85069847 5.55815954 0.08203125 8.9609375 C-1.14941017 15.21670142 -1.3447503 21.26220633 -1.3125 27.625 C-1.30831055 28.76001953 -1.30412109 29.89503906 -1.29980469 31.06445312 C-1.13679129 43.29392654 0.03152438 55.02673448 5.328125 66.21484375 C5.54984375 66.80394531 5.7715625 67.39304687 6 68 C5.505 68.99 5.505 68.99 5 70 C-7.32590175 46.66882882 -6.94856698 24.85960718 0 0 Z " transform="translate(219,1035)" style="fill: #6A99DF;"/><path d="M0 0 C0.66 0 1.32 0 2 0 C2 0.66 2 1.32 2 2 C2.99 2.33 3.98 2.66 5 3 C3.88625 3.45375 2.7725 3.9075 1.625 4.375 C-1.96199008 5.72465986 -1.96199008 5.72465986 -4 8 C-6.5327019 8.34319631 -9.0373984 8.4420609 -11.58984375 8.55859375 C-14.05704095 8.76595742 -14.05704095 8.76595742 -15.421875 10.49609375 C-17.82617673 12.78732188 -20.0602647 12.48245682 -23.3125 12.625 C-26.71126515 12.79079342 -29.94022278 12.98936348 -33.29296875 13.5859375 C-36 14 -36 14 -38 13 C-39.37342831 12.9310528 -40.75002102 12.91532292 -42.125 12.9375 C-44.043125 12.9684375 -44.043125 12.9684375 -46 13 C-46 12.67 -46 12.34 -46 12 C-44.87464844 11.82984375 -43.74929688 11.6596875 -42.58984375 11.484375 C-33.74498066 10.10409171 -25.19445899 8.40584162 -16.5703125 5.984375 C-11.08909651 4.47314258 -5.54887721 3.23516322 0 2 C0 1.34 0 0.68 0 0 Z " transform="translate(1272,905)" style="fill: #543E76;"/><path d="M0 0 C0.33 0 0.66 0 1 0 C1.53474977 19.19340344 1.7773419 37.33857202 -3.45092773 56.00415039 C-4.08712885 58.31670893 -4.56708982 60.64154142 -5 63 C-5.32483418 64.33542939 -5.6550855 65.66961551 -6 67 C-6.66 67 -7.32 67 -8 67 C-7.88366642 65.47847921 -7.7564113 63.95779277 -7.625 62.4375 C-7.52058594 61.16712891 -7.52058594 61.16712891 -7.4140625 59.87109375 C-7 57 -7 57 -6.05859375 53.84765625 C-4.7065522 48.93340929 -4.05822796 44.05210405 -3.4375 39 C-3.30746582 37.96141846 -3.17743164 36.92283691 -3.04345703 35.8527832 C-2.0338613 27.32009168 -1.53486687 18.81110689 -1.29077148 10.22460938 C-1.26442627 9.31904297 -1.23808105 8.41347656 -1.2109375 7.48046875 C-1.19337402 6.68535889 -1.17581055 5.89024902 -1.15771484 5.07104492 C-1 3 -1 3 0 0 Z " transform="translate(640,756)" style="fill: #4C366E;"/><path d="M0 0 C1.2895813 2.02264404 1.2895813 2.02264404 2 4 C-3.99567472 4.04960464 -9.99122875 4.08581647 -15.98706055 4.10986328 C-18.02484215 4.11989285 -20.06260946 4.13351978 -22.1003418 4.15087891 C-25.0369826 4.17526127 -27.97343235 4.18651377 -30.91015625 4.1953125 C-31.81459976 4.20563507 -32.71904327 4.21595764 -33.65089417 4.22659302 C-38.83425429 4.22750311 -43.09177789 3.68966789 -48 2 C-48 1.67 -48 1.34 -48 1 C-41.20140259 0.75614013 -34.40235036 0.5435634 -27.60205078 0.35302734 C-25.28737111 0.28444183 -22.97289446 0.20861573 -20.65869141 0.12548828 C-17.33782863 0.00744476 -14.01711307 -0.08479308 -10.6953125 -0.171875 C-9.13588425 -0.23565338 -9.13588425 -0.23565338 -7.54495239 -0.30072021 C-6.58410736 -0.32104309 -5.62326233 -0.34136597 -4.63330078 -0.36230469 C-3.78502716 -0.38895203 -2.93675354 -0.41559937 -2.06277466 -0.4430542 C-1.0417012 -0.22374237 -1.0417012 -0.22374237 0 0 Z " transform="translate(1104,1141)" style="fill: #2CB4E4;"/><path d="M0 0 C1.98 0 3.96 0 6 0 C6 0.99 6 1.98 6 3 C-36.57 3 -79.14 3 -123 3 C-123 2.67 -123 2.34 -123 2 C-62.115 1.505 -62.115 1.505 0 1 C0 0.67 0 0.34 0 0 Z " transform="translate(1314,980)" style="fill: #482583;"/><path d="M0 0 C5.19130868 1.73393914 9.55540851 4.74827203 14.125 7.6875 C14.97376709 8.22914795 15.82253418 8.7707959 16.69702148 9.32885742 C18.37861253 10.40223049 20.05922472 11.47713888 21.73876953 12.55371094 C24.50365301 14.32213782 27.28359472 16.06621519 30.0625 17.8125 C35.15155066 21.05529042 40.088607 24.49542974 45 28 C45.71929688 28.51175781 46.43859375 29.02351562 47.1796875 29.55078125 C48.78851736 30.69763787 50.3946223 31.84831599 52 33 C51.505 33.99 51.505 33.99 51 35 C47.20696275 33.99806563 44.28463659 33.18975773 41 31 C40.505 29.515 40.505 29.515 40 28 C38.67479497 27.31731862 37.34187818 26.6492959 36 26 C36 25.34 36 24.68 36 24 C35.37351562 23.82984375 34.74703125 23.6596875 34.1015625 23.484375 C33.28429687 23.24203125 32.46703125 22.9996875 31.625 22.75 C30.81289063 22.51796875 30.00078125 22.2859375 29.1640625 22.046875 C26.50825855 20.76211785 26.22938778 19.5870595 25 17 C24.01 17 23.02 17 22 17 C20.66666667 15.66666667 19.33333333 14.33333333 18 13 C16.81135819 12.25909771 15.60129901 11.55175423 14.375 10.875 C11 9 11 9 9 7 C8.13375 6.67 7.2675 6.34 6.375 6 C5.59125 5.67 4.8075 5.34 4 5 C4 4.34 4 3.68 4 3 C2.68 2.67 1.36 2.34 0 2 C0 1.34 0 0.68 0 0 Z " transform="translate(544,580)" style="fill: #4E3475;"/><path d="M0 0 C6.51637988 -0.5341295 11.94162414 0.38463637 18.1875 2.1875 C27.24095201 4.78472439 36.39687483 6.36206038 45.6875 7.8125 C46.39619232 7.92322845 47.10488464 8.03395691 47.83505249 8.14804077 C51.88813145 8.77820374 55.94314664 9.39464476 60 10 C52.46488814 14.15957982 43.55602413 11.42618609 35.5 10 C34.39140625 9.80921875 33.2828125 9.6184375 32.140625 9.421875 C29.42599799 8.95383586 26.71257905 8.47974117 24 8 C24 7.67 24 7.34 24 7 C21.31425618 6.18128619 18.6266428 5.36991012 15.9375 4.5625 C14.80924805 4.21735352 14.80924805 4.21735352 13.65820312 3.86523438 C9.10279056 2.50452673 4.72414647 1.54581772 0 1 C0 0.67 0 0.34 0 0 Z " transform="translate(352,908)" style="fill: #4E3773;"/><path d="M0 0 C1.12632825 3.40902018 1.00041325 3.99891052 -0.375 7.625 C-4.97564252 16.11484547 -12.70292551 24.04900847 -21 29 C-23.765625 29.68359375 -23.765625 29.68359375 -26 30 C-25.34 29.67 -24.68 29.34 -24 29 C-24.33 28.01 -24.66 27.02 -25 26 C-23.9375 23.875 -23.9375 23.875 -22 22 C-20.515 21.7834375 -20.515 21.7834375 -19 21.5625 C-18.01 21.376875 -17.02 21.19125 -16 21 C-14.96986723 19.35178756 -13.96885372 17.68496298 -13 16 C-10.3125 15.1875 -10.3125 15.1875 -8 15 C-8.061875 13.72125 -8.12375 12.4425 -8.1875 11.125 C-8.29296875 8.9453125 -8.29296875 8.9453125 -8 7 C-7.01 6.34 -6.02 5.68 -5 5 C-5 5.66 -5 6.32 -5 7 C-4.34 7 -3.68 7 -3 7 C-2.67 5.35 -2.34 3.7 -2 2 C-1.34 2 -0.68 2 0 2 C0 1.34 0 0.68 0 0 Z " transform="translate(1249,788)" style="fill: #50307D;"/><path d="M0 0 C1.29035156 0.00902344 2.58070312 0.01804687 3.91015625 0.02734375 C7.06530249 0.0507152 10.22004926 0.08347909 13.375 0.125 C13.375 0.455 13.375 0.785 13.375 1.125 C12.32441406 1.16238281 11.27382812 1.19976563 10.19140625 1.23828125 C3.22128002 1.54396668 -3.06052654 1.8770747 -9.625 4.42578125 C-16.24710973 6.74093289 -23.70944722 6.25493732 -30.625 6.125 C-30.74230469 6.76695312 -30.85960937 7.40890625 -30.98046875 8.0703125 C-31.19316406 8.74835937 -31.40585938 9.42640625 -31.625 10.125 C-34.55422419 11.2333551 -36.01944863 11.3704938 -38.9375 10.1875 C-39.494375 9.836875 -40.05125 9.48625 -40.625 9.125 C-39.655625 8.83625 -38.68625 8.5475 -37.6875 8.25 C-34.51835797 7.48285318 -34.51835797 7.48285318 -33.625 5.125 C-31.91015625 4.34375 -31.91015625 4.34375 -29.6875 3.625 C-28.97722656 3.3878125 -28.26695313 3.150625 -27.53515625 2.90625 C-18.23366984 0.40920667 -9.63763517 -0.12903116 0 0 Z " transform="translate(1178.625,726.875)" style="fill: #564177;"/><path d="M0 0 C2.8125 -0.3125 2.8125 -0.3125 6 0 C8.49942942 2.74130969 9.01471721 4.29357401 8.9375 8 C7.16036048 13.68684645 4.09369036 16.17691569 -1.08984375 18.90625 C-3.16076784 20.0920552 -4.94247793 21.45659363 -6.8125 22.9375 C-10.65029406 25.90820895 -14.70350309 27.9764796 -19.09375 30.01953125 C-20.03734375 30.50486328 -20.03734375 30.50486328 -21 31 C-21 31.33 -21 31.66 -21 32 C-26.94 32.495 -26.94 32.495 -33 33 C-29 30 -29 30 -25.73828125 29.0703125 C-21.4773776 27.85036725 -18.0124819 26.06838516 -14.1875 23.875 C-13.14190918 23.27993652 -13.14190918 23.27993652 -12.07519531 22.67285156 C-4.29391671 18.14667516 2.49564979 13.19036739 8 6 C7.4225 5.7525 6.845 5.505 6.25 5.25 C3.6997003 3.83316683 1.98214299 2.12372463 0 0 Z " transform="translate(431,1114)" style="fill: #649BDE;"/><path d="M0 0 C0.66 0 1.32 0 2 0 C2 0.66 2 1.32 2 2 C2.66 2 3.32 2 4 2 C3.67 3.65 3.34 5.3 3 7 C-15.48 7.33 -33.96 7.66 -53 8 C-53 7.01 -53 6.02 -53 5 C-34.85 5 -16.7 5 2 5 C1.34 3.35 0.68 1.7 0 0 Z " transform="translate(1201,1142)" style="fill: #283B89;"/><path d="M0 0 C19.14 0 38.28 0 58 0 C58 0.66 58 1.32 58 2 C57.42592911 2.00808685 56.85185822 2.01617371 56.26039124 2.02450562 C50.30723191 2.11029291 44.35441557 2.20978342 38.40161133 2.31738281 C36.17738588 2.35576237 33.95309644 2.39059908 31.72875977 2.421875 C28.53899194 2.4673315 25.3496681 2.52535651 22.16015625 2.5859375 C20.65860741 2.60326431 20.65860741 2.60326431 19.12672424 2.62094116 C18.20584518 2.64081085 17.28496613 2.66068054 16.33618164 2.68115234 C15.11373497 2.70113785 15.11373497 2.70113785 13.86659241 2.7215271 C12.94262917 2.85937119 12.94262917 2.85937119 12 3 C11.67 3.66 11.34 4.32 11 5 C9.53932801 4.54917531 8.08151968 4.08906463 6.625 3.625 C5.81289063 3.36976563 5.00078125 3.11453125 4.1640625 2.8515625 C2 2 2 2 0 0 Z " transform="translate(400,984)" style="fill: #6AA2E3;"/><path d="M0 0 C1.05994692 3.6437792 0.75613708 5.62134328 -0.4375 9.25 C-0.86869141 10.58804687 -0.86869141 10.58804687 -1.30859375 11.953125 C-1.53675781 12.62859375 -1.76492188 13.3040625 -2 14 C-2.66 14 -3.32 14 -4 14 C-4.20496094 14.71027344 -4.40992188 15.42054687 -4.62109375 16.15234375 C-4.89050781 17.07144531 -5.15992188 17.99054688 -5.4375 18.9375 C-5.70433594 19.85402344 -5.97117187 20.77054688 -6.24609375 21.71484375 C-7 24 -7 24 -8 25 C-8.20159109 27.28917881 -8.31892937 29.57562063 -8.42578125 31.87109375 C-8.71001953 32.92490234 -8.71001953 32.92490234 -9 34 C-11.00390625 35.140625 -11.00390625 35.140625 -13 36 C-13.6878236 38.35367713 -13.6878236 38.35367713 -14 41 C-14.33 41.804375 -14.66 42.60875 -15 43.4375 C-16.13753209 46.05480263 -16.13753209 46.05480263 -16.4375 49.25 C-16.7159375 50.61125 -16.7159375 50.61125 -17 52 C-20.52059568 53.17353189 -23.306493 53.20146402 -27 53 C-27.66 52.34 -28.32 51.68 -29 51 C-28.39653748 51.02343475 -27.79307495 51.04686951 -27.17132568 51.0710144 C-24.58191235 51.0112818 -22.46902557 50.79802362 -20 50 C-17.8510024 47.57236398 -17.0133125 44.80901362 -16.015625 41.7578125 C-15.70727722 40.9196701 -15.39892944 40.08152771 -15.08123779 39.21798706 C-14.10133434 36.53177088 -13.17484182 33.8306081 -12.25 31.125 C-11.61426045 29.34246793 -10.97497181 27.56119741 -10.33203125 25.78125 C-9.39832027 23.19560268 -8.46698104 20.60950505 -7.55065918 18.01763916 C-5.35711845 11.83904905 -2.9055028 5.88372774 0 0 Z " transform="translate(1277,1096)" style="fill: #24418E;"/><path d="M0 0 C1.810448 -0.0009668 1.810448 -0.0009668 3.6574707 -0.00195312 C12.30665704 0.04916019 20.62104138 0.59211748 29.125 2.1875 C26.28430141 3.79832292 24.30633688 4.43060626 21.04663086 4.35449219 C20.25578598 4.34077576 19.4649411 4.32705933 18.65013123 4.31292725 C17.80523636 4.287005 16.96034149 4.26108276 16.08984375 4.234375 C14.77724327 4.20395111 14.77724327 4.20395111 13.43812561 4.1729126 C11.59134797 4.12740442 9.7446933 4.0766436 7.89819336 4.02099609 C5.06966277 3.93771091 2.24122918 3.87590455 -0.58789062 3.81640625 C-2.38284658 3.76951594 -4.17777054 3.7213811 -5.97265625 3.671875 C-7.2430349 3.64513702 -7.2430349 3.64513702 -8.53907776 3.61785889 C-12.45032362 3.48714315 -14.55245534 3.40252977 -17.875 1.1875 C-11.93451987 -0.17558797 -6.06773867 -0.00329836 0 0 Z " transform="translate(438.875,546.8125)" style="fill: #553E7B;"/></svg>